%TF.GenerationSoftware,KiCad,Pcbnew,9.0.0*%
%TF.CreationDate,2025-07-13T02:11:53+05:30*%
%TF.ProjectId,REF03,52454630-332e-46b6-9963-61645f706362,rev?*%
%TF.SameCoordinates,Original*%
%TF.FileFunction,Legend,Bot*%
%TF.FilePolarity,Positive*%
%FSLAX46Y46*%
G04 Gerber Fmt 4.6, Leading zero omitted, Abs format (unit mm)*
G04 Created by KiCad (PCBNEW 9.0.0) date 2025-07-13 02:11:53*
%MOMM*%
%LPD*%
G01*
G04 APERTURE LIST*
%ADD10C,0.100000*%
%ADD11C,0.150000*%
%ADD12C,0.120000*%
G04 APERTURE END LIST*
D10*
X-15227300Y-10807700D02*
X-15862300Y-10172700D01*
X254000Y12128500D02*
X889000Y12763500D01*
X-16719550Y-10807700D02*
X-15227300Y-10807700D01*
X889000Y12763500D02*
X254000Y12128500D01*
X-15862300Y-10172700D02*
X-15227300Y-10807700D01*
X-15227300Y-10807700D02*
X-15862300Y-11442700D01*
X254000Y12128500D02*
X-381000Y12763500D01*
X254000Y14605000D02*
X254000Y12128500D01*
X-381000Y12763500D02*
X254000Y12128500D01*
X-15862300Y-11442700D02*
X-15227300Y-10807700D01*
X4061734Y19316014D02*
X4061734Y20116014D01*
X3680782Y19849348D02*
X3680782Y19316014D01*
X3680782Y19773157D02*
X3642687Y19811252D01*
X3642687Y19811252D02*
X3566497Y19849348D01*
X3566497Y19849348D02*
X3452211Y19849348D01*
X3452211Y19849348D02*
X3376020Y19811252D01*
X3376020Y19811252D02*
X3337925Y19735062D01*
X3337925Y19735062D02*
X3337925Y19316014D01*
X2995068Y19354110D02*
X2918877Y19316014D01*
X2918877Y19316014D02*
X2766496Y19316014D01*
X2766496Y19316014D02*
X2690306Y19354110D01*
X2690306Y19354110D02*
X2652210Y19430300D01*
X2652210Y19430300D02*
X2652210Y19468395D01*
X2652210Y19468395D02*
X2690306Y19544586D01*
X2690306Y19544586D02*
X2766496Y19582681D01*
X2766496Y19582681D02*
X2880782Y19582681D01*
X2880782Y19582681D02*
X2956972Y19620776D01*
X2956972Y19620776D02*
X2995068Y19696967D01*
X2995068Y19696967D02*
X2995068Y19735062D01*
X2995068Y19735062D02*
X2956972Y19811252D01*
X2956972Y19811252D02*
X2880782Y19849348D01*
X2880782Y19849348D02*
X2766496Y19849348D01*
X2766496Y19849348D02*
X2690306Y19811252D01*
X2004591Y19354110D02*
X2080782Y19316014D01*
X2080782Y19316014D02*
X2233163Y19316014D01*
X2233163Y19316014D02*
X2309353Y19354110D01*
X2309353Y19354110D02*
X2347449Y19430300D01*
X2347449Y19430300D02*
X2347449Y19735062D01*
X2347449Y19735062D02*
X2309353Y19811252D01*
X2309353Y19811252D02*
X2233163Y19849348D01*
X2233163Y19849348D02*
X2080782Y19849348D01*
X2080782Y19849348D02*
X2004591Y19811252D01*
X2004591Y19811252D02*
X1966496Y19735062D01*
X1966496Y19735062D02*
X1966496Y19658871D01*
X1966496Y19658871D02*
X2347449Y19582681D01*
X1623639Y19316014D02*
X1623639Y19849348D01*
X1623639Y19696967D02*
X1585544Y19773157D01*
X1585544Y19773157D02*
X1547449Y19811252D01*
X1547449Y19811252D02*
X1471258Y19849348D01*
X1471258Y19849348D02*
X1395068Y19849348D01*
X1242687Y19849348D02*
X937925Y19849348D01*
X1128401Y20116014D02*
X1128401Y19430300D01*
X1128401Y19430300D02*
X1090306Y19354110D01*
X1090306Y19354110D02*
X1014116Y19316014D01*
X1014116Y19316014D02*
X937925Y19316014D01*
X-281122Y19354110D02*
X-204931Y19316014D01*
X-204931Y19316014D02*
X-52550Y19316014D01*
X-52550Y19316014D02*
X23639Y19354110D01*
X23639Y19354110D02*
X61734Y19392205D01*
X61734Y19392205D02*
X99830Y19468395D01*
X99830Y19468395D02*
X99830Y19696967D01*
X99830Y19696967D02*
X61734Y19773157D01*
X61734Y19773157D02*
X23639Y19811252D01*
X23639Y19811252D02*
X-52550Y19849348D01*
X-52550Y19849348D02*
X-204931Y19849348D01*
X-204931Y19849348D02*
X-281122Y19811252D01*
X-928741Y19354110D02*
X-852550Y19316014D01*
X-852550Y19316014D02*
X-700169Y19316014D01*
X-700169Y19316014D02*
X-623979Y19354110D01*
X-623979Y19354110D02*
X-585883Y19430300D01*
X-585883Y19430300D02*
X-585883Y19735062D01*
X-585883Y19735062D02*
X-623979Y19811252D01*
X-623979Y19811252D02*
X-700169Y19849348D01*
X-700169Y19849348D02*
X-852550Y19849348D01*
X-852550Y19849348D02*
X-928741Y19811252D01*
X-928741Y19811252D02*
X-966836Y19735062D01*
X-966836Y19735062D02*
X-966836Y19658871D01*
X-966836Y19658871D02*
X-585883Y19582681D01*
X-1423978Y19316014D02*
X-1347788Y19354110D01*
X-1347788Y19354110D02*
X-1309693Y19430300D01*
X-1309693Y19430300D02*
X-1309693Y20116014D01*
X-1843026Y19316014D02*
X-1766836Y19354110D01*
X-1766836Y19354110D02*
X-1728741Y19430300D01*
X-1728741Y19430300D02*
X-1728741Y20116014D01*
X-2757313Y19316014D02*
X-2757313Y20116014D01*
X-2757313Y19811252D02*
X-2833503Y19849348D01*
X-2833503Y19849348D02*
X-2985884Y19849348D01*
X-2985884Y19849348D02*
X-3062075Y19811252D01*
X-3062075Y19811252D02*
X-3100170Y19773157D01*
X-3100170Y19773157D02*
X-3138265Y19696967D01*
X-3138265Y19696967D02*
X-3138265Y19468395D01*
X-3138265Y19468395D02*
X-3100170Y19392205D01*
X-3100170Y19392205D02*
X-3062075Y19354110D01*
X-3062075Y19354110D02*
X-2985884Y19316014D01*
X-2985884Y19316014D02*
X-2833503Y19316014D01*
X-2833503Y19316014D02*
X-2757313Y19354110D01*
X-3785885Y19354110D02*
X-3709694Y19316014D01*
X-3709694Y19316014D02*
X-3557313Y19316014D01*
X-3557313Y19316014D02*
X-3481123Y19354110D01*
X-3481123Y19354110D02*
X-3443027Y19430300D01*
X-3443027Y19430300D02*
X-3443027Y19735062D01*
X-3443027Y19735062D02*
X-3481123Y19811252D01*
X-3481123Y19811252D02*
X-3557313Y19849348D01*
X-3557313Y19849348D02*
X-3709694Y19849348D01*
X-3709694Y19849348D02*
X-3785885Y19811252D01*
X-3785885Y19811252D02*
X-3823980Y19735062D01*
X-3823980Y19735062D02*
X-3823980Y19658871D01*
X-3823980Y19658871D02*
X-3443027Y19582681D01*
X-4052551Y19849348D02*
X-4357313Y19849348D01*
X-4166837Y19316014D02*
X-4166837Y20001729D01*
X-4166837Y20001729D02*
X-4204932Y20077919D01*
X-4204932Y20077919D02*
X-4281122Y20116014D01*
X-4281122Y20116014D02*
X-4357313Y20116014D01*
X-4738265Y19316014D02*
X-4662075Y19354110D01*
X-4662075Y19354110D02*
X-4623980Y19392205D01*
X-4623980Y19392205D02*
X-4585884Y19468395D01*
X-4585884Y19468395D02*
X-4585884Y19696967D01*
X-4585884Y19696967D02*
X-4623980Y19773157D01*
X-4623980Y19773157D02*
X-4662075Y19811252D01*
X-4662075Y19811252D02*
X-4738265Y19849348D01*
X-4738265Y19849348D02*
X-4852551Y19849348D01*
X-4852551Y19849348D02*
X-4928742Y19811252D01*
X-4928742Y19811252D02*
X-4966837Y19773157D01*
X-4966837Y19773157D02*
X-5004932Y19696967D01*
X-5004932Y19696967D02*
X-5004932Y19468395D01*
X-5004932Y19468395D02*
X-4966837Y19392205D01*
X-4966837Y19392205D02*
X-4928742Y19354110D01*
X-4928742Y19354110D02*
X-4852551Y19316014D01*
X-4852551Y19316014D02*
X-4738265Y19316014D01*
X-5347790Y19316014D02*
X-5347790Y19849348D01*
X-5347790Y19696967D02*
X-5385885Y19773157D01*
X-5385885Y19773157D02*
X-5423980Y19811252D01*
X-5423980Y19811252D02*
X-5500171Y19849348D01*
X-5500171Y19849348D02*
X-5576361Y19849348D01*
X-6147790Y19354110D02*
X-6071599Y19316014D01*
X-6071599Y19316014D02*
X-5919218Y19316014D01*
X-5919218Y19316014D02*
X-5843028Y19354110D01*
X-5843028Y19354110D02*
X-5804932Y19430300D01*
X-5804932Y19430300D02*
X-5804932Y19735062D01*
X-5804932Y19735062D02*
X-5843028Y19811252D01*
X-5843028Y19811252D02*
X-5919218Y19849348D01*
X-5919218Y19849348D02*
X-6071599Y19849348D01*
X-6071599Y19849348D02*
X-6147790Y19811252D01*
X-6147790Y19811252D02*
X-6185885Y19735062D01*
X-6185885Y19735062D02*
X-6185885Y19658871D01*
X-6185885Y19658871D02*
X-5804932Y19582681D01*
X4061734Y18028059D02*
X4061734Y18561393D01*
X4061734Y18828059D02*
X4099830Y18789964D01*
X4099830Y18789964D02*
X4061734Y18751869D01*
X4061734Y18751869D02*
X4023639Y18789964D01*
X4023639Y18789964D02*
X4061734Y18828059D01*
X4061734Y18828059D02*
X4061734Y18751869D01*
X3680782Y18561393D02*
X3680782Y18028059D01*
X3680782Y18485202D02*
X3642687Y18523297D01*
X3642687Y18523297D02*
X3566497Y18561393D01*
X3566497Y18561393D02*
X3452211Y18561393D01*
X3452211Y18561393D02*
X3376020Y18523297D01*
X3376020Y18523297D02*
X3337925Y18447107D01*
X3337925Y18447107D02*
X3337925Y18028059D01*
X2995068Y18066155D02*
X2918877Y18028059D01*
X2918877Y18028059D02*
X2766496Y18028059D01*
X2766496Y18028059D02*
X2690306Y18066155D01*
X2690306Y18066155D02*
X2652210Y18142345D01*
X2652210Y18142345D02*
X2652210Y18180440D01*
X2652210Y18180440D02*
X2690306Y18256631D01*
X2690306Y18256631D02*
X2766496Y18294726D01*
X2766496Y18294726D02*
X2880782Y18294726D01*
X2880782Y18294726D02*
X2956972Y18332821D01*
X2956972Y18332821D02*
X2995068Y18409012D01*
X2995068Y18409012D02*
X2995068Y18447107D01*
X2995068Y18447107D02*
X2956972Y18523297D01*
X2956972Y18523297D02*
X2880782Y18561393D01*
X2880782Y18561393D02*
X2766496Y18561393D01*
X2766496Y18561393D02*
X2690306Y18523297D01*
X2423639Y18561393D02*
X2118877Y18561393D01*
X2309353Y18828059D02*
X2309353Y18142345D01*
X2309353Y18142345D02*
X2271258Y18066155D01*
X2271258Y18066155D02*
X2195068Y18028059D01*
X2195068Y18028059D02*
X2118877Y18028059D01*
X1509353Y18028059D02*
X1509353Y18447107D01*
X1509353Y18447107D02*
X1547448Y18523297D01*
X1547448Y18523297D02*
X1623639Y18561393D01*
X1623639Y18561393D02*
X1776020Y18561393D01*
X1776020Y18561393D02*
X1852210Y18523297D01*
X1509353Y18066155D02*
X1585544Y18028059D01*
X1585544Y18028059D02*
X1776020Y18028059D01*
X1776020Y18028059D02*
X1852210Y18066155D01*
X1852210Y18066155D02*
X1890306Y18142345D01*
X1890306Y18142345D02*
X1890306Y18218535D01*
X1890306Y18218535D02*
X1852210Y18294726D01*
X1852210Y18294726D02*
X1776020Y18332821D01*
X1776020Y18332821D02*
X1585544Y18332821D01*
X1585544Y18332821D02*
X1509353Y18370916D01*
X1014115Y18028059D02*
X1090305Y18066155D01*
X1090305Y18066155D02*
X1128400Y18142345D01*
X1128400Y18142345D02*
X1128400Y18828059D01*
X595067Y18028059D02*
X671257Y18066155D01*
X671257Y18066155D02*
X709352Y18142345D01*
X709352Y18142345D02*
X709352Y18828059D01*
X290304Y18028059D02*
X290304Y18561393D01*
X290304Y18828059D02*
X328400Y18789964D01*
X328400Y18789964D02*
X290304Y18751869D01*
X290304Y18751869D02*
X252209Y18789964D01*
X252209Y18789964D02*
X290304Y18828059D01*
X290304Y18828059D02*
X290304Y18751869D01*
X-90647Y18561393D02*
X-90647Y18028059D01*
X-90647Y18485202D02*
X-128742Y18523297D01*
X-128742Y18523297D02*
X-204932Y18561393D01*
X-204932Y18561393D02*
X-319218Y18561393D01*
X-319218Y18561393D02*
X-395409Y18523297D01*
X-395409Y18523297D02*
X-433504Y18447107D01*
X-433504Y18447107D02*
X-433504Y18028059D01*
X-1157314Y18561393D02*
X-1157314Y17913774D01*
X-1157314Y17913774D02*
X-1119219Y17837583D01*
X-1119219Y17837583D02*
X-1081123Y17799488D01*
X-1081123Y17799488D02*
X-1004933Y17761393D01*
X-1004933Y17761393D02*
X-890647Y17761393D01*
X-890647Y17761393D02*
X-814457Y17799488D01*
X-1157314Y18066155D02*
X-1081123Y18028059D01*
X-1081123Y18028059D02*
X-928742Y18028059D01*
X-928742Y18028059D02*
X-852552Y18066155D01*
X-852552Y18066155D02*
X-814457Y18104250D01*
X-814457Y18104250D02*
X-776361Y18180440D01*
X-776361Y18180440D02*
X-776361Y18409012D01*
X-776361Y18409012D02*
X-814457Y18485202D01*
X-814457Y18485202D02*
X-852552Y18523297D01*
X-852552Y18523297D02*
X-928742Y18561393D01*
X-928742Y18561393D02*
X-1081123Y18561393D01*
X-1081123Y18561393D02*
X-1157314Y18523297D01*
X4061734Y16740104D02*
X4061734Y17540104D01*
X4061734Y17235342D02*
X3985544Y17273438D01*
X3985544Y17273438D02*
X3833163Y17273438D01*
X3833163Y17273438D02*
X3756972Y17235342D01*
X3756972Y17235342D02*
X3718877Y17197247D01*
X3718877Y17197247D02*
X3680782Y17121057D01*
X3680782Y17121057D02*
X3680782Y16892485D01*
X3680782Y16892485D02*
X3718877Y16816295D01*
X3718877Y16816295D02*
X3756972Y16778200D01*
X3756972Y16778200D02*
X3833163Y16740104D01*
X3833163Y16740104D02*
X3985544Y16740104D01*
X3985544Y16740104D02*
X4061734Y16778200D01*
X3337924Y16740104D02*
X3337924Y17273438D01*
X3337924Y17540104D02*
X3376020Y17502009D01*
X3376020Y17502009D02*
X3337924Y17463914D01*
X3337924Y17463914D02*
X3299829Y17502009D01*
X3299829Y17502009D02*
X3337924Y17540104D01*
X3337924Y17540104D02*
X3337924Y17463914D01*
X2956972Y17273438D02*
X2956972Y16740104D01*
X2956972Y17197247D02*
X2918877Y17235342D01*
X2918877Y17235342D02*
X2842687Y17273438D01*
X2842687Y17273438D02*
X2728401Y17273438D01*
X2728401Y17273438D02*
X2652210Y17235342D01*
X2652210Y17235342D02*
X2614115Y17159152D01*
X2614115Y17159152D02*
X2614115Y16740104D01*
X1890305Y16740104D02*
X1890305Y17540104D01*
X1890305Y16778200D02*
X1966496Y16740104D01*
X1966496Y16740104D02*
X2118877Y16740104D01*
X2118877Y16740104D02*
X2195067Y16778200D01*
X2195067Y16778200D02*
X2233162Y16816295D01*
X2233162Y16816295D02*
X2271258Y16892485D01*
X2271258Y16892485D02*
X2271258Y17121057D01*
X2271258Y17121057D02*
X2233162Y17197247D01*
X2233162Y17197247D02*
X2195067Y17235342D01*
X2195067Y17235342D02*
X2118877Y17273438D01*
X2118877Y17273438D02*
X1966496Y17273438D01*
X1966496Y17273438D02*
X1890305Y17235342D01*
X1509352Y16740104D02*
X1509352Y17273438D01*
X1509352Y17540104D02*
X1547448Y17502009D01*
X1547448Y17502009D02*
X1509352Y17463914D01*
X1509352Y17463914D02*
X1471257Y17502009D01*
X1471257Y17502009D02*
X1509352Y17540104D01*
X1509352Y17540104D02*
X1509352Y17463914D01*
X1128400Y17273438D02*
X1128400Y16740104D01*
X1128400Y17197247D02*
X1090305Y17235342D01*
X1090305Y17235342D02*
X1014115Y17273438D01*
X1014115Y17273438D02*
X899829Y17273438D01*
X899829Y17273438D02*
X823638Y17235342D01*
X823638Y17235342D02*
X785543Y17159152D01*
X785543Y17159152D02*
X785543Y16740104D01*
X61733Y17273438D02*
X61733Y16625819D01*
X61733Y16625819D02*
X99828Y16549628D01*
X99828Y16549628D02*
X137924Y16511533D01*
X137924Y16511533D02*
X214114Y16473438D01*
X214114Y16473438D02*
X328400Y16473438D01*
X328400Y16473438D02*
X404590Y16511533D01*
X61733Y16778200D02*
X137924Y16740104D01*
X137924Y16740104D02*
X290305Y16740104D01*
X290305Y16740104D02*
X366495Y16778200D01*
X366495Y16778200D02*
X404590Y16816295D01*
X404590Y16816295D02*
X442686Y16892485D01*
X442686Y16892485D02*
X442686Y17121057D01*
X442686Y17121057D02*
X404590Y17197247D01*
X404590Y17197247D02*
X366495Y17235342D01*
X366495Y17235342D02*
X290305Y17273438D01*
X290305Y17273438D02*
X137924Y17273438D01*
X137924Y17273438D02*
X61733Y17235342D01*
X-928743Y17273438D02*
X-928743Y16473438D01*
X-928743Y17235342D02*
X-1004933Y17273438D01*
X-1004933Y17273438D02*
X-1157314Y17273438D01*
X-1157314Y17273438D02*
X-1233505Y17235342D01*
X-1233505Y17235342D02*
X-1271600Y17197247D01*
X-1271600Y17197247D02*
X-1309695Y17121057D01*
X-1309695Y17121057D02*
X-1309695Y16892485D01*
X-1309695Y16892485D02*
X-1271600Y16816295D01*
X-1271600Y16816295D02*
X-1233505Y16778200D01*
X-1233505Y16778200D02*
X-1157314Y16740104D01*
X-1157314Y16740104D02*
X-1004933Y16740104D01*
X-1004933Y16740104D02*
X-928743Y16778200D01*
X-1766838Y16740104D02*
X-1690648Y16778200D01*
X-1690648Y16778200D02*
X-1652553Y16816295D01*
X-1652553Y16816295D02*
X-1614457Y16892485D01*
X-1614457Y16892485D02*
X-1614457Y17121057D01*
X-1614457Y17121057D02*
X-1652553Y17197247D01*
X-1652553Y17197247D02*
X-1690648Y17235342D01*
X-1690648Y17235342D02*
X-1766838Y17273438D01*
X-1766838Y17273438D02*
X-1881124Y17273438D01*
X-1881124Y17273438D02*
X-1957315Y17235342D01*
X-1957315Y17235342D02*
X-1995410Y17197247D01*
X-1995410Y17197247D02*
X-2033505Y17121057D01*
X-2033505Y17121057D02*
X-2033505Y16892485D01*
X-2033505Y16892485D02*
X-1995410Y16816295D01*
X-1995410Y16816295D02*
X-1957315Y16778200D01*
X-1957315Y16778200D02*
X-1881124Y16740104D01*
X-1881124Y16740104D02*
X-1766838Y16740104D01*
X-2338267Y16778200D02*
X-2414458Y16740104D01*
X-2414458Y16740104D02*
X-2566839Y16740104D01*
X-2566839Y16740104D02*
X-2643029Y16778200D01*
X-2643029Y16778200D02*
X-2681125Y16854390D01*
X-2681125Y16854390D02*
X-2681125Y16892485D01*
X-2681125Y16892485D02*
X-2643029Y16968676D01*
X-2643029Y16968676D02*
X-2566839Y17006771D01*
X-2566839Y17006771D02*
X-2452553Y17006771D01*
X-2452553Y17006771D02*
X-2376363Y17044866D01*
X-2376363Y17044866D02*
X-2338267Y17121057D01*
X-2338267Y17121057D02*
X-2338267Y17159152D01*
X-2338267Y17159152D02*
X-2376363Y17235342D01*
X-2376363Y17235342D02*
X-2452553Y17273438D01*
X-2452553Y17273438D02*
X-2566839Y17273438D01*
X-2566839Y17273438D02*
X-2643029Y17235342D01*
X-2909696Y17273438D02*
X-3214458Y17273438D01*
X-3023982Y17540104D02*
X-3023982Y16854390D01*
X-3023982Y16854390D02*
X-3062077Y16778200D01*
X-3062077Y16778200D02*
X-3138267Y16740104D01*
X-3138267Y16740104D02*
X-3214458Y16740104D01*
X-3481125Y16816295D02*
X-3519220Y16778200D01*
X-3519220Y16778200D02*
X-3481125Y16740104D01*
X-3481125Y16740104D02*
X-3443029Y16778200D01*
X-3443029Y16778200D02*
X-3481125Y16816295D01*
X-3481125Y16816295D02*
X-3481125Y16740104D01*
X5992134Y-2400985D02*
X5992134Y-1600985D01*
X5649277Y-2400985D02*
X5649277Y-1981937D01*
X5649277Y-1981937D02*
X5687372Y-1905747D01*
X5687372Y-1905747D02*
X5763563Y-1867651D01*
X5763563Y-1867651D02*
X5877849Y-1867651D01*
X5877849Y-1867651D02*
X5954039Y-1905747D01*
X5954039Y-1905747D02*
X5992134Y-1943842D01*
X5382610Y-1867651D02*
X5077848Y-1867651D01*
X5268324Y-1600985D02*
X5268324Y-2286699D01*
X5268324Y-2286699D02*
X5230229Y-2362890D01*
X5230229Y-2362890D02*
X5154039Y-2400985D01*
X5154039Y-2400985D02*
X5077848Y-2400985D01*
X4925467Y-1867651D02*
X4620705Y-1867651D01*
X4811181Y-1600985D02*
X4811181Y-2286699D01*
X4811181Y-2286699D02*
X4773086Y-2362890D01*
X4773086Y-2362890D02*
X4696896Y-2400985D01*
X4696896Y-2400985D02*
X4620705Y-2400985D01*
X4354038Y-1867651D02*
X4354038Y-2667651D01*
X4354038Y-1905747D02*
X4277848Y-1867651D01*
X4277848Y-1867651D02*
X4125467Y-1867651D01*
X4125467Y-1867651D02*
X4049276Y-1905747D01*
X4049276Y-1905747D02*
X4011181Y-1943842D01*
X4011181Y-1943842D02*
X3973086Y-2020032D01*
X3973086Y-2020032D02*
X3973086Y-2248604D01*
X3973086Y-2248604D02*
X4011181Y-2324794D01*
X4011181Y-2324794D02*
X4049276Y-2362890D01*
X4049276Y-2362890D02*
X4125467Y-2400985D01*
X4125467Y-2400985D02*
X4277848Y-2400985D01*
X4277848Y-2400985D02*
X4354038Y-2362890D01*
X3668324Y-2362890D02*
X3592133Y-2400985D01*
X3592133Y-2400985D02*
X3439752Y-2400985D01*
X3439752Y-2400985D02*
X3363562Y-2362890D01*
X3363562Y-2362890D02*
X3325466Y-2286699D01*
X3325466Y-2286699D02*
X3325466Y-2248604D01*
X3325466Y-2248604D02*
X3363562Y-2172413D01*
X3363562Y-2172413D02*
X3439752Y-2134318D01*
X3439752Y-2134318D02*
X3554038Y-2134318D01*
X3554038Y-2134318D02*
X3630228Y-2096223D01*
X3630228Y-2096223D02*
X3668324Y-2020032D01*
X3668324Y-2020032D02*
X3668324Y-1981937D01*
X3668324Y-1981937D02*
X3630228Y-1905747D01*
X3630228Y-1905747D02*
X3554038Y-1867651D01*
X3554038Y-1867651D02*
X3439752Y-1867651D01*
X3439752Y-1867651D02*
X3363562Y-1905747D01*
X2982609Y-2324794D02*
X2944514Y-2362890D01*
X2944514Y-2362890D02*
X2982609Y-2400985D01*
X2982609Y-2400985D02*
X3020705Y-2362890D01*
X3020705Y-2362890D02*
X2982609Y-2324794D01*
X2982609Y-2324794D02*
X2982609Y-2400985D01*
X2982609Y-1905747D02*
X2944514Y-1943842D01*
X2944514Y-1943842D02*
X2982609Y-1981937D01*
X2982609Y-1981937D02*
X3020705Y-1943842D01*
X3020705Y-1943842D02*
X2982609Y-1905747D01*
X2982609Y-1905747D02*
X2982609Y-1981937D01*
X2030229Y-1562890D02*
X2715943Y-2591461D01*
X1192134Y-1562890D02*
X1877848Y-2591461D01*
X582610Y-1867651D02*
X582610Y-2515270D01*
X582610Y-2515270D02*
X620705Y-2591461D01*
X620705Y-2591461D02*
X658801Y-2629556D01*
X658801Y-2629556D02*
X734991Y-2667651D01*
X734991Y-2667651D02*
X849277Y-2667651D01*
X849277Y-2667651D02*
X925467Y-2629556D01*
X582610Y-2362890D02*
X658801Y-2400985D01*
X658801Y-2400985D02*
X811182Y-2400985D01*
X811182Y-2400985D02*
X887372Y-2362890D01*
X887372Y-2362890D02*
X925467Y-2324794D01*
X925467Y-2324794D02*
X963563Y-2248604D01*
X963563Y-2248604D02*
X963563Y-2020032D01*
X963563Y-2020032D02*
X925467Y-1943842D01*
X925467Y-1943842D02*
X887372Y-1905747D01*
X887372Y-1905747D02*
X811182Y-1867651D01*
X811182Y-1867651D02*
X658801Y-1867651D01*
X658801Y-1867651D02*
X582610Y-1905747D01*
X201657Y-2400985D02*
X201657Y-1867651D01*
X201657Y-1600985D02*
X239753Y-1639080D01*
X239753Y-1639080D02*
X201657Y-1677175D01*
X201657Y-1677175D02*
X163562Y-1639080D01*
X163562Y-1639080D02*
X201657Y-1600985D01*
X201657Y-1600985D02*
X201657Y-1677175D01*
X-65008Y-1867651D02*
X-369770Y-1867651D01*
X-179294Y-1600985D02*
X-179294Y-2286699D01*
X-179294Y-2286699D02*
X-217389Y-2362890D01*
X-217389Y-2362890D02*
X-293579Y-2400985D01*
X-293579Y-2400985D02*
X-369770Y-2400985D01*
X-636437Y-2400985D02*
X-636437Y-1600985D01*
X-979294Y-2400985D02*
X-979294Y-1981937D01*
X-979294Y-1981937D02*
X-941199Y-1905747D01*
X-941199Y-1905747D02*
X-865008Y-1867651D01*
X-865008Y-1867651D02*
X-750722Y-1867651D01*
X-750722Y-1867651D02*
X-674532Y-1905747D01*
X-674532Y-1905747D02*
X-636437Y-1943842D01*
X-1703104Y-1867651D02*
X-1703104Y-2400985D01*
X-1360247Y-1867651D02*
X-1360247Y-2286699D01*
X-1360247Y-2286699D02*
X-1398342Y-2362890D01*
X-1398342Y-2362890D02*
X-1474532Y-2400985D01*
X-1474532Y-2400985D02*
X-1588818Y-2400985D01*
X-1588818Y-2400985D02*
X-1665009Y-2362890D01*
X-1665009Y-2362890D02*
X-1703104Y-2324794D01*
X-2084057Y-2400985D02*
X-2084057Y-1600985D01*
X-2084057Y-1905747D02*
X-2160247Y-1867651D01*
X-2160247Y-1867651D02*
X-2312628Y-1867651D01*
X-2312628Y-1867651D02*
X-2388819Y-1905747D01*
X-2388819Y-1905747D02*
X-2426914Y-1943842D01*
X-2426914Y-1943842D02*
X-2465009Y-2020032D01*
X-2465009Y-2020032D02*
X-2465009Y-2248604D01*
X-2465009Y-2248604D02*
X-2426914Y-2324794D01*
X-2426914Y-2324794D02*
X-2388819Y-2362890D01*
X-2388819Y-2362890D02*
X-2312628Y-2400985D01*
X-2312628Y-2400985D02*
X-2160247Y-2400985D01*
X-2160247Y-2400985D02*
X-2084057Y-2362890D01*
X-2807867Y-2324794D02*
X-2845962Y-2362890D01*
X-2845962Y-2362890D02*
X-2807867Y-2400985D01*
X-2807867Y-2400985D02*
X-2769771Y-2362890D01*
X-2769771Y-2362890D02*
X-2807867Y-2324794D01*
X-2807867Y-2324794D02*
X-2807867Y-2400985D01*
X-3531676Y-2362890D02*
X-3455485Y-2400985D01*
X-3455485Y-2400985D02*
X-3303104Y-2400985D01*
X-3303104Y-2400985D02*
X-3226914Y-2362890D01*
X-3226914Y-2362890D02*
X-3188819Y-2324794D01*
X-3188819Y-2324794D02*
X-3150723Y-2248604D01*
X-3150723Y-2248604D02*
X-3150723Y-2020032D01*
X-3150723Y-2020032D02*
X-3188819Y-1943842D01*
X-3188819Y-1943842D02*
X-3226914Y-1905747D01*
X-3226914Y-1905747D02*
X-3303104Y-1867651D01*
X-3303104Y-1867651D02*
X-3455485Y-1867651D01*
X-3455485Y-1867651D02*
X-3531676Y-1905747D01*
X-3988818Y-2400985D02*
X-3912628Y-2362890D01*
X-3912628Y-2362890D02*
X-3874533Y-2324794D01*
X-3874533Y-2324794D02*
X-3836437Y-2248604D01*
X-3836437Y-2248604D02*
X-3836437Y-2020032D01*
X-3836437Y-2020032D02*
X-3874533Y-1943842D01*
X-3874533Y-1943842D02*
X-3912628Y-1905747D01*
X-3912628Y-1905747D02*
X-3988818Y-1867651D01*
X-3988818Y-1867651D02*
X-4103104Y-1867651D01*
X-4103104Y-1867651D02*
X-4179295Y-1905747D01*
X-4179295Y-1905747D02*
X-4217390Y-1943842D01*
X-4217390Y-1943842D02*
X-4255485Y-2020032D01*
X-4255485Y-2020032D02*
X-4255485Y-2248604D01*
X-4255485Y-2248604D02*
X-4217390Y-2324794D01*
X-4217390Y-2324794D02*
X-4179295Y-2362890D01*
X-4179295Y-2362890D02*
X-4103104Y-2400985D01*
X-4103104Y-2400985D02*
X-3988818Y-2400985D01*
X-4598343Y-2400985D02*
X-4598343Y-1867651D01*
X-4598343Y-1943842D02*
X-4636438Y-1905747D01*
X-4636438Y-1905747D02*
X-4712628Y-1867651D01*
X-4712628Y-1867651D02*
X-4826914Y-1867651D01*
X-4826914Y-1867651D02*
X-4903105Y-1905747D01*
X-4903105Y-1905747D02*
X-4941200Y-1981937D01*
X-4941200Y-1981937D02*
X-4941200Y-2400985D01*
X-4941200Y-1981937D02*
X-4979295Y-1905747D01*
X-4979295Y-1905747D02*
X-5055486Y-1867651D01*
X-5055486Y-1867651D02*
X-5169771Y-1867651D01*
X-5169771Y-1867651D02*
X-5245962Y-1905747D01*
X-5245962Y-1905747D02*
X-5284057Y-1981937D01*
X-5284057Y-1981937D02*
X-5284057Y-2400985D01*
X-6236438Y-1562890D02*
X-5550724Y-2591461D01*
X5992134Y-3688940D02*
X5992134Y-2888940D01*
X5992134Y-2888940D02*
X5534991Y-3688940D01*
X5534991Y-3688940D02*
X5534991Y-2888940D01*
X4811182Y-3688940D02*
X4811182Y-3269892D01*
X4811182Y-3269892D02*
X4849277Y-3193702D01*
X4849277Y-3193702D02*
X4925468Y-3155606D01*
X4925468Y-3155606D02*
X5077849Y-3155606D01*
X5077849Y-3155606D02*
X5154039Y-3193702D01*
X4811182Y-3650845D02*
X4887373Y-3688940D01*
X4887373Y-3688940D02*
X5077849Y-3688940D01*
X5077849Y-3688940D02*
X5154039Y-3650845D01*
X5154039Y-3650845D02*
X5192135Y-3574654D01*
X5192135Y-3574654D02*
X5192135Y-3498464D01*
X5192135Y-3498464D02*
X5154039Y-3422273D01*
X5154039Y-3422273D02*
X5077849Y-3384178D01*
X5077849Y-3384178D02*
X4887373Y-3384178D01*
X4887373Y-3384178D02*
X4811182Y-3346083D01*
X4430229Y-3155606D02*
X4430229Y-3688940D01*
X4430229Y-3231797D02*
X4392134Y-3193702D01*
X4392134Y-3193702D02*
X4315944Y-3155606D01*
X4315944Y-3155606D02*
X4201658Y-3155606D01*
X4201658Y-3155606D02*
X4125467Y-3193702D01*
X4125467Y-3193702D02*
X4087372Y-3269892D01*
X4087372Y-3269892D02*
X4087372Y-3688940D01*
X3363562Y-3688940D02*
X3363562Y-2888940D01*
X3363562Y-3650845D02*
X3439753Y-3688940D01*
X3439753Y-3688940D02*
X3592134Y-3688940D01*
X3592134Y-3688940D02*
X3668324Y-3650845D01*
X3668324Y-3650845D02*
X3706419Y-3612749D01*
X3706419Y-3612749D02*
X3744515Y-3536559D01*
X3744515Y-3536559D02*
X3744515Y-3307987D01*
X3744515Y-3307987D02*
X3706419Y-3231797D01*
X3706419Y-3231797D02*
X3668324Y-3193702D01*
X3668324Y-3193702D02*
X3592134Y-3155606D01*
X3592134Y-3155606D02*
X3439753Y-3155606D01*
X3439753Y-3155606D02*
X3363562Y-3193702D01*
X2982609Y-3688940D02*
X2982609Y-3155606D01*
X2982609Y-2888940D02*
X3020705Y-2927035D01*
X3020705Y-2927035D02*
X2982609Y-2965130D01*
X2982609Y-2965130D02*
X2944514Y-2927035D01*
X2944514Y-2927035D02*
X2982609Y-2888940D01*
X2982609Y-2888940D02*
X2982609Y-2965130D01*
X2639753Y-3650845D02*
X2563562Y-3688940D01*
X2563562Y-3688940D02*
X2411181Y-3688940D01*
X2411181Y-3688940D02*
X2334991Y-3650845D01*
X2334991Y-3650845D02*
X2296895Y-3574654D01*
X2296895Y-3574654D02*
X2296895Y-3536559D01*
X2296895Y-3536559D02*
X2334991Y-3460368D01*
X2334991Y-3460368D02*
X2411181Y-3422273D01*
X2411181Y-3422273D02*
X2525467Y-3422273D01*
X2525467Y-3422273D02*
X2601657Y-3384178D01*
X2601657Y-3384178D02*
X2639753Y-3307987D01*
X2639753Y-3307987D02*
X2639753Y-3269892D01*
X2639753Y-3269892D02*
X2601657Y-3193702D01*
X2601657Y-3193702D02*
X2525467Y-3155606D01*
X2525467Y-3155606D02*
X2411181Y-3155606D01*
X2411181Y-3155606D02*
X2334991Y-3193702D01*
X1954038Y-3688940D02*
X1954038Y-2888940D01*
X1611181Y-3688940D02*
X1611181Y-3269892D01*
X1611181Y-3269892D02*
X1649276Y-3193702D01*
X1649276Y-3193702D02*
X1725467Y-3155606D01*
X1725467Y-3155606D02*
X1839753Y-3155606D01*
X1839753Y-3155606D02*
X1915943Y-3193702D01*
X1915943Y-3193702D02*
X1954038Y-3231797D01*
X1230228Y-3384178D02*
X620705Y-3384178D01*
X239752Y-3688940D02*
X239752Y-2888940D01*
X-217390Y-3688940D02*
X125467Y-3231797D01*
X-217390Y-2888940D02*
X239752Y-3346083D01*
X-560247Y-3688940D02*
X-560247Y-2888940D01*
X-1017390Y-3688940D02*
X-674532Y-3231797D01*
X-1017390Y-2888940D02*
X-560247Y-3346083D01*
X-1931675Y-2850845D02*
X-1245961Y-3879416D01*
X5992134Y-4976895D02*
X5992134Y-4176895D01*
X5992134Y-4176895D02*
X5687372Y-4176895D01*
X5687372Y-4176895D02*
X5611182Y-4214990D01*
X5611182Y-4214990D02*
X5573087Y-4253085D01*
X5573087Y-4253085D02*
X5534991Y-4329276D01*
X5534991Y-4329276D02*
X5534991Y-4443561D01*
X5534991Y-4443561D02*
X5573087Y-4519752D01*
X5573087Y-4519752D02*
X5611182Y-4557847D01*
X5611182Y-4557847D02*
X5687372Y-4595942D01*
X5687372Y-4595942D02*
X5992134Y-4595942D01*
X5192134Y-4976895D02*
X5192134Y-4443561D01*
X5192134Y-4595942D02*
X5154039Y-4519752D01*
X5154039Y-4519752D02*
X5115944Y-4481657D01*
X5115944Y-4481657D02*
X5039753Y-4443561D01*
X5039753Y-4443561D02*
X4963563Y-4443561D01*
X4392134Y-4938800D02*
X4468325Y-4976895D01*
X4468325Y-4976895D02*
X4620706Y-4976895D01*
X4620706Y-4976895D02*
X4696896Y-4938800D01*
X4696896Y-4938800D02*
X4734992Y-4862609D01*
X4734992Y-4862609D02*
X4734992Y-4557847D01*
X4734992Y-4557847D02*
X4696896Y-4481657D01*
X4696896Y-4481657D02*
X4620706Y-4443561D01*
X4620706Y-4443561D02*
X4468325Y-4443561D01*
X4468325Y-4443561D02*
X4392134Y-4481657D01*
X4392134Y-4481657D02*
X4354039Y-4557847D01*
X4354039Y-4557847D02*
X4354039Y-4634038D01*
X4354039Y-4634038D02*
X4734992Y-4710228D01*
X3668325Y-4938800D02*
X3744516Y-4976895D01*
X3744516Y-4976895D02*
X3896897Y-4976895D01*
X3896897Y-4976895D02*
X3973087Y-4938800D01*
X3973087Y-4938800D02*
X4011182Y-4900704D01*
X4011182Y-4900704D02*
X4049278Y-4824514D01*
X4049278Y-4824514D02*
X4049278Y-4595942D01*
X4049278Y-4595942D02*
X4011182Y-4519752D01*
X4011182Y-4519752D02*
X3973087Y-4481657D01*
X3973087Y-4481657D02*
X3896897Y-4443561D01*
X3896897Y-4443561D02*
X3744516Y-4443561D01*
X3744516Y-4443561D02*
X3668325Y-4481657D01*
X3325468Y-4976895D02*
X3325468Y-4443561D01*
X3325468Y-4176895D02*
X3363564Y-4214990D01*
X3363564Y-4214990D02*
X3325468Y-4253085D01*
X3325468Y-4253085D02*
X3287373Y-4214990D01*
X3287373Y-4214990D02*
X3325468Y-4176895D01*
X3325468Y-4176895D02*
X3325468Y-4253085D01*
X2982612Y-4938800D02*
X2906421Y-4976895D01*
X2906421Y-4976895D02*
X2754040Y-4976895D01*
X2754040Y-4976895D02*
X2677850Y-4938800D01*
X2677850Y-4938800D02*
X2639754Y-4862609D01*
X2639754Y-4862609D02*
X2639754Y-4824514D01*
X2639754Y-4824514D02*
X2677850Y-4748323D01*
X2677850Y-4748323D02*
X2754040Y-4710228D01*
X2754040Y-4710228D02*
X2868326Y-4710228D01*
X2868326Y-4710228D02*
X2944516Y-4672133D01*
X2944516Y-4672133D02*
X2982612Y-4595942D01*
X2982612Y-4595942D02*
X2982612Y-4557847D01*
X2982612Y-4557847D02*
X2944516Y-4481657D01*
X2944516Y-4481657D02*
X2868326Y-4443561D01*
X2868326Y-4443561D02*
X2754040Y-4443561D01*
X2754040Y-4443561D02*
X2677850Y-4481657D01*
X2296897Y-4976895D02*
X2296897Y-4443561D01*
X2296897Y-4176895D02*
X2334993Y-4214990D01*
X2334993Y-4214990D02*
X2296897Y-4253085D01*
X2296897Y-4253085D02*
X2258802Y-4214990D01*
X2258802Y-4214990D02*
X2296897Y-4176895D01*
X2296897Y-4176895D02*
X2296897Y-4253085D01*
X1801660Y-4976895D02*
X1877850Y-4938800D01*
X1877850Y-4938800D02*
X1915945Y-4900704D01*
X1915945Y-4900704D02*
X1954041Y-4824514D01*
X1954041Y-4824514D02*
X1954041Y-4595942D01*
X1954041Y-4595942D02*
X1915945Y-4519752D01*
X1915945Y-4519752D02*
X1877850Y-4481657D01*
X1877850Y-4481657D02*
X1801660Y-4443561D01*
X1801660Y-4443561D02*
X1687374Y-4443561D01*
X1687374Y-4443561D02*
X1611183Y-4481657D01*
X1611183Y-4481657D02*
X1573088Y-4519752D01*
X1573088Y-4519752D02*
X1534993Y-4595942D01*
X1534993Y-4595942D02*
X1534993Y-4824514D01*
X1534993Y-4824514D02*
X1573088Y-4900704D01*
X1573088Y-4900704D02*
X1611183Y-4938800D01*
X1611183Y-4938800D02*
X1687374Y-4976895D01*
X1687374Y-4976895D02*
X1801660Y-4976895D01*
X1192135Y-4443561D02*
X1192135Y-4976895D01*
X1192135Y-4519752D02*
X1154040Y-4481657D01*
X1154040Y-4481657D02*
X1077850Y-4443561D01*
X1077850Y-4443561D02*
X963564Y-4443561D01*
X963564Y-4443561D02*
X887373Y-4481657D01*
X887373Y-4481657D02*
X849278Y-4557847D01*
X849278Y-4557847D02*
X849278Y-4976895D01*
X658802Y-5053085D02*
X49278Y-5053085D01*
X-598341Y-4976895D02*
X-331674Y-4595942D01*
X-141198Y-4976895D02*
X-141198Y-4176895D01*
X-141198Y-4176895D02*
X-445960Y-4176895D01*
X-445960Y-4176895D02*
X-522150Y-4214990D01*
X-522150Y-4214990D02*
X-560245Y-4253085D01*
X-560245Y-4253085D02*
X-598341Y-4329276D01*
X-598341Y-4329276D02*
X-598341Y-4443561D01*
X-598341Y-4443561D02*
X-560245Y-4519752D01*
X-560245Y-4519752D02*
X-522150Y-4557847D01*
X-522150Y-4557847D02*
X-445960Y-4595942D01*
X-445960Y-4595942D02*
X-141198Y-4595942D01*
X-1245960Y-4938800D02*
X-1169769Y-4976895D01*
X-1169769Y-4976895D02*
X-1017388Y-4976895D01*
X-1017388Y-4976895D02*
X-941198Y-4938800D01*
X-941198Y-4938800D02*
X-903102Y-4862609D01*
X-903102Y-4862609D02*
X-903102Y-4557847D01*
X-903102Y-4557847D02*
X-941198Y-4481657D01*
X-941198Y-4481657D02*
X-1017388Y-4443561D01*
X-1017388Y-4443561D02*
X-1169769Y-4443561D01*
X-1169769Y-4443561D02*
X-1245960Y-4481657D01*
X-1245960Y-4481657D02*
X-1284055Y-4557847D01*
X-1284055Y-4557847D02*
X-1284055Y-4634038D01*
X-1284055Y-4634038D02*
X-903102Y-4710228D01*
X-1512626Y-4443561D02*
X-1817388Y-4443561D01*
X-1626912Y-4976895D02*
X-1626912Y-4291180D01*
X-1626912Y-4291180D02*
X-1665007Y-4214990D01*
X-1665007Y-4214990D02*
X-1741197Y-4176895D01*
X-1741197Y-4176895D02*
X-1817388Y-4176895D01*
X-2388817Y-4938800D02*
X-2312626Y-4976895D01*
X-2312626Y-4976895D02*
X-2160245Y-4976895D01*
X-2160245Y-4976895D02*
X-2084055Y-4938800D01*
X-2084055Y-4938800D02*
X-2045959Y-4862609D01*
X-2045959Y-4862609D02*
X-2045959Y-4557847D01*
X-2045959Y-4557847D02*
X-2084055Y-4481657D01*
X-2084055Y-4481657D02*
X-2160245Y-4443561D01*
X-2160245Y-4443561D02*
X-2312626Y-4443561D01*
X-2312626Y-4443561D02*
X-2388817Y-4481657D01*
X-2388817Y-4481657D02*
X-2426912Y-4557847D01*
X-2426912Y-4557847D02*
X-2426912Y-4634038D01*
X-2426912Y-4634038D02*
X-2045959Y-4710228D01*
X-2769769Y-4976895D02*
X-2769769Y-4443561D01*
X-2769769Y-4595942D02*
X-2807864Y-4519752D01*
X-2807864Y-4519752D02*
X-2845959Y-4481657D01*
X-2845959Y-4481657D02*
X-2922150Y-4443561D01*
X-2922150Y-4443561D02*
X-2998340Y-4443561D01*
X-3569769Y-4938800D02*
X-3493578Y-4976895D01*
X-3493578Y-4976895D02*
X-3341197Y-4976895D01*
X-3341197Y-4976895D02*
X-3265007Y-4938800D01*
X-3265007Y-4938800D02*
X-3226911Y-4862609D01*
X-3226911Y-4862609D02*
X-3226911Y-4557847D01*
X-3226911Y-4557847D02*
X-3265007Y-4481657D01*
X-3265007Y-4481657D02*
X-3341197Y-4443561D01*
X-3341197Y-4443561D02*
X-3493578Y-4443561D01*
X-3493578Y-4443561D02*
X-3569769Y-4481657D01*
X-3569769Y-4481657D02*
X-3607864Y-4557847D01*
X-3607864Y-4557847D02*
X-3607864Y-4634038D01*
X-3607864Y-4634038D02*
X-3226911Y-4710228D01*
X-3950721Y-4443561D02*
X-3950721Y-4976895D01*
X-3950721Y-4519752D02*
X-3988816Y-4481657D01*
X-3988816Y-4481657D02*
X-4065006Y-4443561D01*
X-4065006Y-4443561D02*
X-4179292Y-4443561D01*
X-4179292Y-4443561D02*
X-4255483Y-4481657D01*
X-4255483Y-4481657D02*
X-4293578Y-4557847D01*
X-4293578Y-4557847D02*
X-4293578Y-4976895D01*
X-5017388Y-4938800D02*
X-4941197Y-4976895D01*
X-4941197Y-4976895D02*
X-4788816Y-4976895D01*
X-4788816Y-4976895D02*
X-4712626Y-4938800D01*
X-4712626Y-4938800D02*
X-4674531Y-4900704D01*
X-4674531Y-4900704D02*
X-4636435Y-4824514D01*
X-4636435Y-4824514D02*
X-4636435Y-4595942D01*
X-4636435Y-4595942D02*
X-4674531Y-4519752D01*
X-4674531Y-4519752D02*
X-4712626Y-4481657D01*
X-4712626Y-4481657D02*
X-4788816Y-4443561D01*
X-4788816Y-4443561D02*
X-4941197Y-4443561D01*
X-4941197Y-4443561D02*
X-5017388Y-4481657D01*
X-5665007Y-4938800D02*
X-5588816Y-4976895D01*
X-5588816Y-4976895D02*
X-5436435Y-4976895D01*
X-5436435Y-4976895D02*
X-5360245Y-4938800D01*
X-5360245Y-4938800D02*
X-5322149Y-4862609D01*
X-5322149Y-4862609D02*
X-5322149Y-4557847D01*
X-5322149Y-4557847D02*
X-5360245Y-4481657D01*
X-5360245Y-4481657D02*
X-5436435Y-4443561D01*
X-5436435Y-4443561D02*
X-5588816Y-4443561D01*
X-5588816Y-4443561D02*
X-5665007Y-4481657D01*
X-5665007Y-4481657D02*
X-5703102Y-4557847D01*
X-5703102Y-4557847D02*
X-5703102Y-4634038D01*
X-5703102Y-4634038D02*
X-5322149Y-4710228D01*
X-6045959Y-4900704D02*
X-6084054Y-4938800D01*
X-6084054Y-4938800D02*
X-6045959Y-4976895D01*
X-6045959Y-4976895D02*
X-6007863Y-4938800D01*
X-6007863Y-4938800D02*
X-6045959Y-4900704D01*
X-6045959Y-4900704D02*
X-6045959Y-4976895D01*
X-6769768Y-4443561D02*
X-6769768Y-5091180D01*
X-6769768Y-5091180D02*
X-6731673Y-5167371D01*
X-6731673Y-5167371D02*
X-6693577Y-5205466D01*
X-6693577Y-5205466D02*
X-6617387Y-5243561D01*
X-6617387Y-5243561D02*
X-6503101Y-5243561D01*
X-6503101Y-5243561D02*
X-6426911Y-5205466D01*
X-6769768Y-4938800D02*
X-6693577Y-4976895D01*
X-6693577Y-4976895D02*
X-6541196Y-4976895D01*
X-6541196Y-4976895D02*
X-6465006Y-4938800D01*
X-6465006Y-4938800D02*
X-6426911Y-4900704D01*
X-6426911Y-4900704D02*
X-6388815Y-4824514D01*
X-6388815Y-4824514D02*
X-6388815Y-4595942D01*
X-6388815Y-4595942D02*
X-6426911Y-4519752D01*
X-6426911Y-4519752D02*
X-6465006Y-4481657D01*
X-6465006Y-4481657D02*
X-6541196Y-4443561D01*
X-6541196Y-4443561D02*
X-6693577Y-4443561D01*
X-6693577Y-4443561D02*
X-6769768Y-4481657D01*
X-7150721Y-4976895D02*
X-7150721Y-4443561D01*
X-7150721Y-4176895D02*
X-7112625Y-4214990D01*
X-7112625Y-4214990D02*
X-7150721Y-4253085D01*
X-7150721Y-4253085D02*
X-7188816Y-4214990D01*
X-7188816Y-4214990D02*
X-7150721Y-4176895D01*
X-7150721Y-4176895D02*
X-7150721Y-4253085D01*
X-7417387Y-4443561D02*
X-7722149Y-4443561D01*
X-7531673Y-4176895D02*
X-7531673Y-4862609D01*
X-7531673Y-4862609D02*
X-7569768Y-4938800D01*
X-7569768Y-4938800D02*
X-7645958Y-4976895D01*
X-7645958Y-4976895D02*
X-7722149Y-4976895D01*
X-13730931Y-8672647D02*
X-13464265Y-8672647D01*
X-13464265Y-9091695D02*
X-13464265Y-8291695D01*
X-13464265Y-8291695D02*
X-13845217Y-8291695D01*
X-14149979Y-9091695D02*
X-14149979Y-8558361D01*
X-14149979Y-8710742D02*
X-14188074Y-8634552D01*
X-14188074Y-8634552D02*
X-14226169Y-8596457D01*
X-14226169Y-8596457D02*
X-14302360Y-8558361D01*
X-14302360Y-8558361D02*
X-14378550Y-8558361D01*
X-14949979Y-9053600D02*
X-14873788Y-9091695D01*
X-14873788Y-9091695D02*
X-14721407Y-9091695D01*
X-14721407Y-9091695D02*
X-14645217Y-9053600D01*
X-14645217Y-9053600D02*
X-14607121Y-8977409D01*
X-14607121Y-8977409D02*
X-14607121Y-8672647D01*
X-14607121Y-8672647D02*
X-14645217Y-8596457D01*
X-14645217Y-8596457D02*
X-14721407Y-8558361D01*
X-14721407Y-8558361D02*
X-14873788Y-8558361D01*
X-14873788Y-8558361D02*
X-14949979Y-8596457D01*
X-14949979Y-8596457D02*
X-14988074Y-8672647D01*
X-14988074Y-8672647D02*
X-14988074Y-8748838D01*
X-14988074Y-8748838D02*
X-14607121Y-8825028D01*
X-15673788Y-8558361D02*
X-15673788Y-9358361D01*
X-15673788Y-9053600D02*
X-15597597Y-9091695D01*
X-15597597Y-9091695D02*
X-15445216Y-9091695D01*
X-15445216Y-9091695D02*
X-15369026Y-9053600D01*
X-15369026Y-9053600D02*
X-15330931Y-9015504D01*
X-15330931Y-9015504D02*
X-15292835Y-8939314D01*
X-15292835Y-8939314D02*
X-15292835Y-8710742D01*
X-15292835Y-8710742D02*
X-15330931Y-8634552D01*
X-15330931Y-8634552D02*
X-15369026Y-8596457D01*
X-15369026Y-8596457D02*
X-15445216Y-8558361D01*
X-15445216Y-8558361D02*
X-15597597Y-8558361D01*
X-15597597Y-8558361D02*
X-15673788Y-8596457D01*
X-16397598Y-8558361D02*
X-16397598Y-9091695D01*
X-16054741Y-8558361D02*
X-16054741Y-8977409D01*
X-16054741Y-8977409D02*
X-16092836Y-9053600D01*
X-16092836Y-9053600D02*
X-16169026Y-9091695D01*
X-16169026Y-9091695D02*
X-16283312Y-9091695D01*
X-16283312Y-9091695D02*
X-16359503Y-9053600D01*
X-16359503Y-9053600D02*
X-16397598Y-9015504D01*
X-17083313Y-9053600D02*
X-17007122Y-9091695D01*
X-17007122Y-9091695D02*
X-16854741Y-9091695D01*
X-16854741Y-9091695D02*
X-16778551Y-9053600D01*
X-16778551Y-9053600D02*
X-16740455Y-8977409D01*
X-16740455Y-8977409D02*
X-16740455Y-8672647D01*
X-16740455Y-8672647D02*
X-16778551Y-8596457D01*
X-16778551Y-8596457D02*
X-16854741Y-8558361D01*
X-16854741Y-8558361D02*
X-17007122Y-8558361D01*
X-17007122Y-8558361D02*
X-17083313Y-8596457D01*
X-17083313Y-8596457D02*
X-17121408Y-8672647D01*
X-17121408Y-8672647D02*
X-17121408Y-8748838D01*
X-17121408Y-8748838D02*
X-16740455Y-8825028D01*
X-17464265Y-8558361D02*
X-17464265Y-9091695D01*
X-17464265Y-8634552D02*
X-17502360Y-8596457D01*
X-17502360Y-8596457D02*
X-17578550Y-8558361D01*
X-17578550Y-8558361D02*
X-17692836Y-8558361D01*
X-17692836Y-8558361D02*
X-17769027Y-8596457D01*
X-17769027Y-8596457D02*
X-17807122Y-8672647D01*
X-17807122Y-8672647D02*
X-17807122Y-9091695D01*
X-18530932Y-9053600D02*
X-18454741Y-9091695D01*
X-18454741Y-9091695D02*
X-18302360Y-9091695D01*
X-18302360Y-9091695D02*
X-18226170Y-9053600D01*
X-18226170Y-9053600D02*
X-18188075Y-9015504D01*
X-18188075Y-9015504D02*
X-18149979Y-8939314D01*
X-18149979Y-8939314D02*
X-18149979Y-8710742D01*
X-18149979Y-8710742D02*
X-18188075Y-8634552D01*
X-18188075Y-8634552D02*
X-18226170Y-8596457D01*
X-18226170Y-8596457D02*
X-18302360Y-8558361D01*
X-18302360Y-8558361D02*
X-18454741Y-8558361D01*
X-18454741Y-8558361D02*
X-18530932Y-8596457D01*
X-18797598Y-8558361D02*
X-18988074Y-9091695D01*
X-19178551Y-8558361D02*
X-18988074Y-9091695D01*
X-18988074Y-9091695D02*
X-18911884Y-9282171D01*
X-18911884Y-9282171D02*
X-18873789Y-9320266D01*
X-18873789Y-9320266D02*
X-18797598Y-9358361D01*
D11*
X4671219Y-16838705D02*
X3671219Y-16838705D01*
X3671219Y-16838705D02*
X3671219Y-17076800D01*
X3671219Y-17076800D02*
X3718838Y-17219657D01*
X3718838Y-17219657D02*
X3814076Y-17314895D01*
X3814076Y-17314895D02*
X3909314Y-17362514D01*
X3909314Y-17362514D02*
X4099790Y-17410133D01*
X4099790Y-17410133D02*
X4242647Y-17410133D01*
X4242647Y-17410133D02*
X4433123Y-17362514D01*
X4433123Y-17362514D02*
X4528361Y-17314895D01*
X4528361Y-17314895D02*
X4623600Y-17219657D01*
X4623600Y-17219657D02*
X4671219Y-17076800D01*
X4671219Y-17076800D02*
X4671219Y-16838705D01*
X3671219Y-17743467D02*
X3671219Y-18362514D01*
X3671219Y-18362514D02*
X4052171Y-18029181D01*
X4052171Y-18029181D02*
X4052171Y-18172038D01*
X4052171Y-18172038D02*
X4099790Y-18267276D01*
X4099790Y-18267276D02*
X4147409Y-18314895D01*
X4147409Y-18314895D02*
X4242647Y-18362514D01*
X4242647Y-18362514D02*
X4480742Y-18362514D01*
X4480742Y-18362514D02*
X4575980Y-18314895D01*
X4575980Y-18314895D02*
X4623600Y-18267276D01*
X4623600Y-18267276D02*
X4671219Y-18172038D01*
X4671219Y-18172038D02*
X4671219Y-17886324D01*
X4671219Y-17886324D02*
X4623600Y-17791086D01*
X4623600Y-17791086D02*
X4575980Y-17743467D01*
X836514Y4031390D02*
X693657Y3983771D01*
X693657Y3983771D02*
X646038Y3936152D01*
X646038Y3936152D02*
X598419Y3840914D01*
X598419Y3840914D02*
X598419Y3698057D01*
X598419Y3698057D02*
X646038Y3602819D01*
X646038Y3602819D02*
X693657Y3555200D01*
X693657Y3555200D02*
X788895Y3507580D01*
X788895Y3507580D02*
X1169847Y3507580D01*
X1169847Y3507580D02*
X1169847Y4507580D01*
X1169847Y4507580D02*
X836514Y4507580D01*
X836514Y4507580D02*
X741276Y4459961D01*
X741276Y4459961D02*
X693657Y4412342D01*
X693657Y4412342D02*
X646038Y4317104D01*
X646038Y4317104D02*
X646038Y4221866D01*
X646038Y4221866D02*
X693657Y4126628D01*
X693657Y4126628D02*
X741276Y4079009D01*
X741276Y4079009D02*
X836514Y4031390D01*
X836514Y4031390D02*
X1169847Y4031390D01*
X312704Y4507580D02*
X-258723Y4507580D01*
X26990Y3507580D02*
X26990Y4507580D01*
X-1115866Y3507580D02*
X-544438Y3507580D01*
X-830152Y3507580D02*
X-830152Y4507580D01*
X-830152Y4507580D02*
X-734914Y4364723D01*
X-734914Y4364723D02*
X-639676Y4269485D01*
X-639676Y4269485D02*
X-544438Y4221866D01*
X-7768419Y-14565333D02*
X-7720800Y-14517714D01*
X-7720800Y-14517714D02*
X-7673180Y-14374857D01*
X-7673180Y-14374857D02*
X-7673180Y-14279619D01*
X-7673180Y-14279619D02*
X-7720800Y-14136762D01*
X-7720800Y-14136762D02*
X-7816038Y-14041524D01*
X-7816038Y-14041524D02*
X-7911276Y-13993905D01*
X-7911276Y-13993905D02*
X-8101752Y-13946286D01*
X-8101752Y-13946286D02*
X-8244609Y-13946286D01*
X-8244609Y-13946286D02*
X-8435085Y-13993905D01*
X-8435085Y-13993905D02*
X-8530323Y-14041524D01*
X-8530323Y-14041524D02*
X-8625561Y-14136762D01*
X-8625561Y-14136762D02*
X-8673180Y-14279619D01*
X-8673180Y-14279619D02*
X-8673180Y-14374857D01*
X-8673180Y-14374857D02*
X-8625561Y-14517714D01*
X-8625561Y-14517714D02*
X-8577942Y-14565333D01*
X-7673180Y-15517714D02*
X-7673180Y-14946286D01*
X-7673180Y-15232000D02*
X-8673180Y-15232000D01*
X-8673180Y-15232000D02*
X-8530323Y-15136762D01*
X-8530323Y-15136762D02*
X-8435085Y-15041524D01*
X-8435085Y-15041524D02*
X-8387466Y-14946286D01*
X-5802333Y-16869580D02*
X-5754714Y-16917200D01*
X-5754714Y-16917200D02*
X-5611857Y-16964819D01*
X-5611857Y-16964819D02*
X-5516619Y-16964819D01*
X-5516619Y-16964819D02*
X-5373762Y-16917200D01*
X-5373762Y-16917200D02*
X-5278524Y-16821961D01*
X-5278524Y-16821961D02*
X-5230905Y-16726723D01*
X-5230905Y-16726723D02*
X-5183286Y-16536247D01*
X-5183286Y-16536247D02*
X-5183286Y-16393390D01*
X-5183286Y-16393390D02*
X-5230905Y-16202914D01*
X-5230905Y-16202914D02*
X-5278524Y-16107676D01*
X-5278524Y-16107676D02*
X-5373762Y-16012438D01*
X-5373762Y-16012438D02*
X-5516619Y-15964819D01*
X-5516619Y-15964819D02*
X-5611857Y-15964819D01*
X-5611857Y-15964819D02*
X-5754714Y-16012438D01*
X-5754714Y-16012438D02*
X-5802333Y-16060057D01*
X-6707095Y-15964819D02*
X-6230905Y-15964819D01*
X-6230905Y-15964819D02*
X-6183286Y-16441009D01*
X-6183286Y-16441009D02*
X-6230905Y-16393390D01*
X-6230905Y-16393390D02*
X-6326143Y-16345771D01*
X-6326143Y-16345771D02*
X-6564238Y-16345771D01*
X-6564238Y-16345771D02*
X-6659476Y-16393390D01*
X-6659476Y-16393390D02*
X-6707095Y-16441009D01*
X-6707095Y-16441009D02*
X-6754714Y-16536247D01*
X-6754714Y-16536247D02*
X-6754714Y-16774342D01*
X-6754714Y-16774342D02*
X-6707095Y-16869580D01*
X-6707095Y-16869580D02*
X-6659476Y-16917200D01*
X-6659476Y-16917200D02*
X-6564238Y-16964819D01*
X-6564238Y-16964819D02*
X-6326143Y-16964819D01*
X-6326143Y-16964819D02*
X-6230905Y-16917200D01*
X-6230905Y-16917200D02*
X-6183286Y-16869580D01*
X-3810095Y-14059819D02*
X-3810095Y-14869342D01*
X-3810095Y-14869342D02*
X-3857714Y-14964580D01*
X-3857714Y-14964580D02*
X-3905333Y-15012200D01*
X-3905333Y-15012200D02*
X-4000571Y-15059819D01*
X-4000571Y-15059819D02*
X-4191047Y-15059819D01*
X-4191047Y-15059819D02*
X-4286285Y-15012200D01*
X-4286285Y-15012200D02*
X-4333904Y-14964580D01*
X-4333904Y-14964580D02*
X-4381523Y-14869342D01*
X-4381523Y-14869342D02*
X-4381523Y-14059819D01*
X-5381523Y-15059819D02*
X-4810095Y-15059819D01*
X-5095809Y-15059819D02*
X-5095809Y-14059819D01*
X-5095809Y-14059819D02*
X-5000571Y-14202676D01*
X-5000571Y-14202676D02*
X-4905333Y-14297914D01*
X-4905333Y-14297914D02*
X-4810095Y-14345533D01*
X-15133180Y-13295333D02*
X-15609371Y-12962000D01*
X-15133180Y-12723905D02*
X-16133180Y-12723905D01*
X-16133180Y-12723905D02*
X-16133180Y-13104857D01*
X-16133180Y-13104857D02*
X-16085561Y-13200095D01*
X-16085561Y-13200095D02*
X-16037942Y-13247714D01*
X-16037942Y-13247714D02*
X-15942704Y-13295333D01*
X-15942704Y-13295333D02*
X-15799847Y-13295333D01*
X-15799847Y-13295333D02*
X-15704609Y-13247714D01*
X-15704609Y-13247714D02*
X-15656990Y-13200095D01*
X-15656990Y-13200095D02*
X-15609371Y-13104857D01*
X-15609371Y-13104857D02*
X-15609371Y-12723905D01*
X-16037942Y-13676286D02*
X-16085561Y-13723905D01*
X-16085561Y-13723905D02*
X-16133180Y-13819143D01*
X-16133180Y-13819143D02*
X-16133180Y-14057238D01*
X-16133180Y-14057238D02*
X-16085561Y-14152476D01*
X-16085561Y-14152476D02*
X-16037942Y-14200095D01*
X-16037942Y-14200095D02*
X-15942704Y-14247714D01*
X-15942704Y-14247714D02*
X-15847466Y-14247714D01*
X-15847466Y-14247714D02*
X-15704609Y-14200095D01*
X-15704609Y-14200095D02*
X-15133180Y-13628667D01*
X-15133180Y-13628667D02*
X-15133180Y-14247714D01*
X7786666Y-9249580D02*
X7834285Y-9297200D01*
X7834285Y-9297200D02*
X7977142Y-9344819D01*
X7977142Y-9344819D02*
X8072380Y-9344819D01*
X8072380Y-9344819D02*
X8215237Y-9297200D01*
X8215237Y-9297200D02*
X8310475Y-9201961D01*
X8310475Y-9201961D02*
X8358094Y-9106723D01*
X8358094Y-9106723D02*
X8405713Y-8916247D01*
X8405713Y-8916247D02*
X8405713Y-8773390D01*
X8405713Y-8773390D02*
X8358094Y-8582914D01*
X8358094Y-8582914D02*
X8310475Y-8487676D01*
X8310475Y-8487676D02*
X8215237Y-8392438D01*
X8215237Y-8392438D02*
X8072380Y-8344819D01*
X8072380Y-8344819D02*
X7977142Y-8344819D01*
X7977142Y-8344819D02*
X7834285Y-8392438D01*
X7834285Y-8392438D02*
X7786666Y-8440057D01*
X7453332Y-8344819D02*
X6834285Y-8344819D01*
X6834285Y-8344819D02*
X7167618Y-8725771D01*
X7167618Y-8725771D02*
X7024761Y-8725771D01*
X7024761Y-8725771D02*
X6929523Y-8773390D01*
X6929523Y-8773390D02*
X6881904Y-8821009D01*
X6881904Y-8821009D02*
X6834285Y-8916247D01*
X6834285Y-8916247D02*
X6834285Y-9154342D01*
X6834285Y-9154342D02*
X6881904Y-9249580D01*
X6881904Y-9249580D02*
X6929523Y-9297200D01*
X6929523Y-9297200D02*
X7024761Y-9344819D01*
X7024761Y-9344819D02*
X7310475Y-9344819D01*
X7310475Y-9344819D02*
X7405713Y-9297200D01*
X7405713Y-9297200D02*
X7453332Y-9249580D01*
X547666Y-9249580D02*
X595285Y-9297200D01*
X595285Y-9297200D02*
X738142Y-9344819D01*
X738142Y-9344819D02*
X833380Y-9344819D01*
X833380Y-9344819D02*
X976237Y-9297200D01*
X976237Y-9297200D02*
X1071475Y-9201961D01*
X1071475Y-9201961D02*
X1119094Y-9106723D01*
X1119094Y-9106723D02*
X1166713Y-8916247D01*
X1166713Y-8916247D02*
X1166713Y-8773390D01*
X1166713Y-8773390D02*
X1119094Y-8582914D01*
X1119094Y-8582914D02*
X1071475Y-8487676D01*
X1071475Y-8487676D02*
X976237Y-8392438D01*
X976237Y-8392438D02*
X833380Y-8344819D01*
X833380Y-8344819D02*
X738142Y-8344819D01*
X738142Y-8344819D02*
X595285Y-8392438D01*
X595285Y-8392438D02*
X547666Y-8440057D01*
X166713Y-8440057D02*
X119094Y-8392438D01*
X119094Y-8392438D02*
X23856Y-8344819D01*
X23856Y-8344819D02*
X-214238Y-8344819D01*
X-214238Y-8344819D02*
X-309476Y-8392438D01*
X-309476Y-8392438D02*
X-357095Y-8440057D01*
X-357095Y-8440057D02*
X-404714Y-8535295D01*
X-404714Y-8535295D02*
X-404714Y-8630533D01*
X-404714Y-8630533D02*
X-357095Y-8773390D01*
X-357095Y-8773390D02*
X214332Y-9344819D01*
X214332Y-9344819D02*
X-404714Y-9344819D01*
D12*
%TO.C,D3*%
X2757999Y-13970000D02*
X2758000Y-13320000D01*
X2757999Y-13970000D02*
X2758000Y-14620000D01*
X5878001Y-13970000D02*
X5878000Y-13320000D01*
X5878001Y-13970000D02*
X5878000Y-14620000D01*
X2808000Y-12807500D02*
X2478001Y-13047500D01*
X2478000Y-12567500D01*
X2808000Y-12807500D01*
G36*
X2808000Y-12807500D02*
G01*
X2478001Y-13047500D01*
X2478000Y-12567500D01*
X2808000Y-12807500D01*
G37*
%TO.C,BT1*%
X-15750000Y3689000D02*
X-10680000Y3689000D01*
X-15750000Y-1911000D02*
X-15750000Y3689000D01*
X-10680000Y3689000D02*
X-10680000Y7239000D01*
X-10680000Y-1911000D02*
X-15750000Y-1911000D01*
X-10680000Y-1911000D02*
X-10680000Y-3361000D01*
X-10680000Y-3361000D02*
X-3800000Y-9741000D01*
X-3800000Y-9741000D02*
X3800000Y-9741000D01*
X10680000Y3689000D02*
X10680000Y7169000D01*
X10680000Y-1911000D02*
X10680000Y-3361000D01*
X10680000Y-3361000D02*
X3800000Y-9741000D01*
X15750000Y3689000D02*
X10680000Y3689000D01*
X15750000Y-1911000D02*
X10680000Y-1911000D01*
X15750000Y-1911000D02*
X15750000Y3689000D01*
X-10680000Y7189000D02*
G75*
G02*
X-5316452Y9381753I3130000J0D01*
G01*
X5169999Y9219001D02*
G75*
G02*
X-5306422Y9356392I-5169999J5270000D01*
G01*
X5180001Y9228999D02*
G75*
G02*
X10677059Y7189000I2369999J-2040000D01*
G01*
%TO.C,C1*%
X-8863000Y-12250053D02*
X-8863000Y-11727547D01*
X-7393000Y-12250053D02*
X-7393000Y-11727547D01*
%TO.C,C5*%
X-3055253Y-15775000D02*
X-2532747Y-15775000D01*
X-3055253Y-17245000D02*
X-2532747Y-17245000D01*
%TO.C,U1*%
X-4649601Y-10453025D02*
X-5449601Y-10453026D01*
X-4649601Y-10453025D02*
X-3849601Y-10453026D01*
X-4649601Y-13573027D02*
X-5449601Y-13573026D01*
X-4649601Y-13573027D02*
X-3849601Y-13573026D01*
X-5709601Y-13853026D02*
X-6189601Y-13853026D01*
X-5949601Y-13523026D01*
X-5709601Y-13853026D01*
G36*
X-5709601Y-13853026D02*
G01*
X-6189601Y-13853026D01*
X-5949601Y-13523026D01*
X-5709601Y-13853026D01*
G37*
%TO.C,R2*%
X-14458000Y-11042001D02*
X-14458000Y-15881999D01*
X-14458000Y-11042001D02*
X-13178000Y-11042000D01*
X-14458000Y-15881999D02*
X-13978000Y-15882000D01*
X-14078000Y-11042000D02*
X-14078000Y-11042000D01*
X-14078000Y-11042000D02*
X-13178000Y-11042000D01*
X-14078000Y-11042000D02*
X-13178000Y-11042000D01*
X-12198000Y-15882000D02*
X-11678000Y-15882000D01*
X-10698000Y-11042000D02*
X-9418000Y-11042001D01*
X-9898000Y-15882000D02*
X-9418000Y-15881999D01*
X-9418000Y-11042001D02*
X-9418000Y-15881999D01*
%TO.C,C3*%
X6908748Y-9758000D02*
X8331252Y-9758000D01*
X6908748Y-11578000D02*
X8331252Y-11578000D01*
%TO.C,C2*%
X642253Y-10441000D02*
X119747Y-10441000D01*
X642253Y-11911000D02*
X119747Y-11911000D01*
%TD*%
M02*
