%TF.GenerationSoftware,KiCad,Pcbnew,9.0.0*%
%TF.CreationDate,2025-07-13T02:11:53+05:30*%
%TF.ProjectId,REF03,52454630-332e-46b6-9963-61645f706362,rev?*%
%TF.SameCoordinates,Original*%
%TF.FileFunction,Legend,Top*%
%TF.FilePolarity,Positive*%
%FSLAX46Y46*%
G04 Gerber Fmt 4.6, Leading zero omitted, Abs format (unit mm)*
G04 Created by KiCad (PCBNEW 9.0.0) date 2025-07-13 02:11:53*
%MOMM*%
%LPD*%
G01*
G04 APERTURE LIST*
%ADD10C,0.100000*%
%ADD11C,0.300000*%
%ADD12C,0.250000*%
%ADD13C,0.150000*%
%ADD14C,0.120000*%
G04 APERTURE END LIST*
D10*
X254000Y12268200D02*
X-101600Y12623800D01*
X254000Y12268200D02*
X609600Y12623800D01*
X609600Y12623800D02*
X254000Y12268200D01*
X254000Y13335000D02*
X254000Y12268200D01*
D11*
X-15499108Y10928266D02*
X-13975298Y10928266D01*
X-14832441Y10166361D02*
X-14641965Y11690171D01*
X14218891Y11309266D02*
X15742701Y11309266D01*
D12*
X3553758Y-7246619D02*
X4125187Y-7246619D01*
X3714473Y-8246619D02*
X3839473Y-7246619D01*
X4720425Y-8199000D02*
X4619235Y-8246619D01*
X4619235Y-8246619D02*
X4428758Y-8246619D01*
X4428758Y-8246619D02*
X4339473Y-8199000D01*
X4339473Y-8199000D02*
X4303758Y-8103761D01*
X4303758Y-8103761D02*
X4351378Y-7722809D01*
X4351378Y-7722809D02*
X4410901Y-7627571D01*
X4410901Y-7627571D02*
X4512092Y-7579952D01*
X4512092Y-7579952D02*
X4702568Y-7579952D01*
X4702568Y-7579952D02*
X4791854Y-7627571D01*
X4791854Y-7627571D02*
X4827568Y-7722809D01*
X4827568Y-7722809D02*
X4815663Y-7818047D01*
X4815663Y-7818047D02*
X4327568Y-7913285D01*
X5190663Y-8246619D02*
X5273997Y-7579952D01*
X5262092Y-7675190D02*
X5315663Y-7627571D01*
X5315663Y-7627571D02*
X5416854Y-7579952D01*
X5416854Y-7579952D02*
X5559711Y-7579952D01*
X5559711Y-7579952D02*
X5648997Y-7627571D01*
X5648997Y-7627571D02*
X5684711Y-7722809D01*
X5684711Y-7722809D02*
X5619235Y-8246619D01*
X5684711Y-7722809D02*
X5744235Y-7627571D01*
X5744235Y-7627571D02*
X5845425Y-7579952D01*
X5845425Y-7579952D02*
X5988282Y-7579952D01*
X5988282Y-7579952D02*
X6077568Y-7627571D01*
X6077568Y-7627571D02*
X6113282Y-7722809D01*
X6113282Y-7722809D02*
X6047806Y-8246619D01*
X6607330Y-7579952D02*
X6482330Y-8579952D01*
X6601377Y-7627571D02*
X6702568Y-7579952D01*
X6702568Y-7579952D02*
X6893044Y-7579952D01*
X6893044Y-7579952D02*
X6982330Y-7627571D01*
X6982330Y-7627571D02*
X7023996Y-7675190D01*
X7023996Y-7675190D02*
X7059711Y-7770428D01*
X7059711Y-7770428D02*
X7023996Y-8056142D01*
X7023996Y-8056142D02*
X6964473Y-8151380D01*
X6964473Y-8151380D02*
X6910901Y-8199000D01*
X6910901Y-8199000D02*
X6809711Y-8246619D01*
X6809711Y-8246619D02*
X6619234Y-8246619D01*
X6619234Y-8246619D02*
X6529949Y-8199000D01*
X-18770062Y6496406D02*
X-19112324Y7091644D01*
X-19484348Y6496406D02*
X-19328098Y7746406D01*
X-19328098Y7746406D02*
X-18851907Y7746406D01*
X-18851907Y7746406D02*
X-18740300Y7686882D01*
X-18740300Y7686882D02*
X-18688217Y7627358D01*
X-18688217Y7627358D02*
X-18643574Y7508310D01*
X-18643574Y7508310D02*
X-18665896Y7329739D01*
X-18665896Y7329739D02*
X-18740300Y7210691D01*
X-18740300Y7210691D02*
X-18807265Y7151168D01*
X-18807265Y7151168D02*
X-18933753Y7091644D01*
X-18933753Y7091644D02*
X-19409943Y7091644D01*
X-18152503Y7151168D02*
X-17735836Y7151168D01*
X-17639110Y6496406D02*
X-18234348Y6496406D01*
X-18234348Y6496406D02*
X-18078098Y7746406D01*
X-18078098Y7746406D02*
X-17482860Y7746406D01*
X-16604884Y7151168D02*
X-17021551Y7151168D01*
X-17103396Y6496406D02*
X-16947146Y7746406D01*
X-16947146Y7746406D02*
X-16351908Y7746406D01*
X-15637622Y7746406D02*
X-15518574Y7746406D01*
X-15518574Y7746406D02*
X-15406967Y7686882D01*
X-15406967Y7686882D02*
X-15354884Y7627358D01*
X-15354884Y7627358D02*
X-15310241Y7508310D01*
X-15310241Y7508310D02*
X-15280479Y7270215D01*
X-15280479Y7270215D02*
X-15317681Y6972596D01*
X-15317681Y6972596D02*
X-15406967Y6734501D01*
X-15406967Y6734501D02*
X-15481372Y6615453D01*
X-15481372Y6615453D02*
X-15548336Y6555930D01*
X-15548336Y6555930D02*
X-15674824Y6496406D01*
X-15674824Y6496406D02*
X-15793872Y6496406D01*
X-15793872Y6496406D02*
X-15905479Y6555930D01*
X-15905479Y6555930D02*
X-15957562Y6615453D01*
X-15957562Y6615453D02*
X-16002205Y6734501D01*
X-16002205Y6734501D02*
X-16031967Y6972596D01*
X-16031967Y6972596D02*
X-15994765Y7270215D01*
X-15994765Y7270215D02*
X-15905479Y7508310D01*
X-15905479Y7508310D02*
X-15831074Y7627358D01*
X-15831074Y7627358D02*
X-15764110Y7686882D01*
X-15764110Y7686882D02*
X-15637622Y7746406D01*
X-14804289Y7746406D02*
X-14030479Y7746406D01*
X-14030479Y7746406D02*
X-14506670Y7270215D01*
X-14506670Y7270215D02*
X-14328098Y7270215D01*
X-14328098Y7270215D02*
X-14216491Y7210691D01*
X-14216491Y7210691D02*
X-14164408Y7151168D01*
X-14164408Y7151168D02*
X-14119765Y7032120D01*
X-14119765Y7032120D02*
X-14156967Y6734501D01*
X-14156967Y6734501D02*
X-14231372Y6615453D01*
X-14231372Y6615453D02*
X-14298336Y6555930D01*
X-14298336Y6555930D02*
X-14424824Y6496406D01*
X-14424824Y6496406D02*
X-14781967Y6496406D01*
X-14781967Y6496406D02*
X-14893574Y6555930D01*
X-14893574Y6555930D02*
X-14945658Y6615453D01*
X-19402503Y5614928D02*
X-19335538Y5674452D01*
X-19335538Y5674452D02*
X-19209050Y5733976D01*
X-19209050Y5733976D02*
X-18911431Y5733976D01*
X-18911431Y5733976D02*
X-18799824Y5674452D01*
X-18799824Y5674452D02*
X-18747741Y5614928D01*
X-18747741Y5614928D02*
X-18703098Y5495880D01*
X-18703098Y5495880D02*
X-18717979Y5376833D01*
X-18717979Y5376833D02*
X-18799824Y5198261D01*
X-18799824Y5198261D02*
X-19603396Y4483976D01*
X-19603396Y4483976D02*
X-18829586Y4483976D01*
X-18278991Y4603023D02*
X-18226908Y4543500D01*
X-18226908Y4543500D02*
X-18293872Y4483976D01*
X-18293872Y4483976D02*
X-18345955Y4543500D01*
X-18345955Y4543500D02*
X-18278991Y4603023D01*
X-18278991Y4603023D02*
X-18293872Y4483976D01*
X-16947146Y5733976D02*
X-17542384Y5733976D01*
X-17542384Y5733976D02*
X-17676313Y5138738D01*
X-17676313Y5138738D02*
X-17609348Y5198261D01*
X-17609348Y5198261D02*
X-17482860Y5257785D01*
X-17482860Y5257785D02*
X-17185241Y5257785D01*
X-17185241Y5257785D02*
X-17073634Y5198261D01*
X-17073634Y5198261D02*
X-17021551Y5138738D01*
X-17021551Y5138738D02*
X-16976908Y5019690D01*
X-16976908Y5019690D02*
X-17014110Y4722071D01*
X-17014110Y4722071D02*
X-17088515Y4603023D01*
X-17088515Y4603023D02*
X-17155479Y4543500D01*
X-17155479Y4543500D02*
X-17281967Y4483976D01*
X-17281967Y4483976D02*
X-17579586Y4483976D01*
X-17579586Y4483976D02*
X-17691193Y4543500D01*
X-17691193Y4543500D02*
X-17743277Y4603023D01*
X-16530479Y5733976D02*
X-16270063Y4483976D01*
X-16270063Y4483976D02*
X-15697146Y5733976D01*
X-14484348Y4483976D02*
X-14380181Y5317309D01*
X-14409943Y5079214D02*
X-14335538Y5198261D01*
X-14335538Y5198261D02*
X-14268574Y5257785D01*
X-14268574Y5257785D02*
X-14142086Y5317309D01*
X-14142086Y5317309D02*
X-14023038Y5317309D01*
X-13226907Y4543500D02*
X-13353395Y4483976D01*
X-13353395Y4483976D02*
X-13591490Y4483976D01*
X-13591490Y4483976D02*
X-13703097Y4543500D01*
X-13703097Y4543500D02*
X-13747740Y4662547D01*
X-13747740Y4662547D02*
X-13688217Y5138738D01*
X-13688217Y5138738D02*
X-13613812Y5257785D01*
X-13613812Y5257785D02*
X-13487324Y5317309D01*
X-13487324Y5317309D02*
X-13249228Y5317309D01*
X-13249228Y5317309D02*
X-13137621Y5257785D01*
X-13137621Y5257785D02*
X-13092978Y5138738D01*
X-13092978Y5138738D02*
X-13107859Y5019690D01*
X-13107859Y5019690D02*
X-13717978Y4900642D01*
X-12713514Y5317309D02*
X-12237323Y5317309D01*
X-12639109Y4483976D02*
X-12505180Y5555404D01*
X-12505180Y5555404D02*
X-12430776Y5674452D01*
X-12430776Y5674452D02*
X-12304288Y5733976D01*
X-12304288Y5733976D02*
X-12185240Y5733976D01*
X-290050Y14353019D02*
X-343622Y14305400D01*
X-343622Y14305400D02*
X-492431Y14257780D01*
X-492431Y14257780D02*
X-587669Y14257780D01*
X-587669Y14257780D02*
X-724574Y14305400D01*
X-724574Y14305400D02*
X-807907Y14400638D01*
X-807907Y14400638D02*
X-843622Y14495876D01*
X-843622Y14495876D02*
X-867431Y14686352D01*
X-867431Y14686352D02*
X-849574Y14829209D01*
X-849574Y14829209D02*
X-778146Y15019685D01*
X-778146Y15019685D02*
X-718622Y15114923D01*
X-718622Y15114923D02*
X-611479Y15210161D01*
X-611479Y15210161D02*
X-462669Y15257780D01*
X-462669Y15257780D02*
X-367431Y15257780D01*
X-367431Y15257780D02*
X-230527Y15210161D01*
X-230527Y15210161D02*
X-188860Y15162542D01*
X114711Y14543495D02*
X590901Y14543495D01*
X-16241Y14257780D02*
X442092Y15257780D01*
X442092Y15257780D02*
X650425Y14257780D01*
X1459949Y14257780D02*
X983758Y14257780D01*
X983758Y14257780D02*
X1108758Y15257780D01*
D13*
X2947200Y-17843332D02*
X2994819Y-17700475D01*
X2994819Y-17700475D02*
X2994819Y-17462380D01*
X2994819Y-17462380D02*
X2947200Y-17367142D01*
X2947200Y-17367142D02*
X2899580Y-17319523D01*
X2899580Y-17319523D02*
X2804342Y-17271904D01*
X2804342Y-17271904D02*
X2709104Y-17271904D01*
X2709104Y-17271904D02*
X2613866Y-17319523D01*
X2613866Y-17319523D02*
X2566247Y-17367142D01*
X2566247Y-17367142D02*
X2518628Y-17462380D01*
X2518628Y-17462380D02*
X2471009Y-17652856D01*
X2471009Y-17652856D02*
X2423390Y-17748094D01*
X2423390Y-17748094D02*
X2375771Y-17795713D01*
X2375771Y-17795713D02*
X2280533Y-17843332D01*
X2280533Y-17843332D02*
X2185295Y-17843332D01*
X2185295Y-17843332D02*
X2090057Y-17795713D01*
X2090057Y-17795713D02*
X2042438Y-17748094D01*
X2042438Y-17748094D02*
X1994819Y-17652856D01*
X1994819Y-17652856D02*
X1994819Y-17414761D01*
X1994819Y-17414761D02*
X2042438Y-17271904D01*
X1994819Y-16938570D02*
X2994819Y-16700475D01*
X2994819Y-16700475D02*
X2280533Y-16509999D01*
X2280533Y-16509999D02*
X2994819Y-16319523D01*
X2994819Y-16319523D02*
X1994819Y-16081428D01*
X2994819Y-15176666D02*
X2994819Y-15748094D01*
X2994819Y-15462380D02*
X1994819Y-15462380D01*
X1994819Y-15462380D02*
X2137676Y-15557618D01*
X2137676Y-15557618D02*
X2232914Y-15652856D01*
X2232914Y-15652856D02*
X2280533Y-15748094D01*
X7185819Y7326333D02*
X6709628Y6993000D01*
X7185819Y6754905D02*
X6185819Y6754905D01*
X6185819Y6754905D02*
X6185819Y7135857D01*
X6185819Y7135857D02*
X6233438Y7231095D01*
X6233438Y7231095D02*
X6281057Y7278714D01*
X6281057Y7278714D02*
X6376295Y7326333D01*
X6376295Y7326333D02*
X6519152Y7326333D01*
X6519152Y7326333D02*
X6614390Y7278714D01*
X6614390Y7278714D02*
X6662009Y7231095D01*
X6662009Y7231095D02*
X6709628Y7135857D01*
X6709628Y7135857D02*
X6709628Y6754905D01*
X7185819Y8278714D02*
X7185819Y7707286D01*
X7185819Y7993000D02*
X6185819Y7993000D01*
X6185819Y7993000D02*
X6328676Y7897762D01*
X6328676Y7897762D02*
X6423914Y7802524D01*
X6423914Y7802524D02*
X6471533Y7707286D01*
X-8599466Y7260419D02*
X-8647085Y7212800D01*
X-8647085Y7212800D02*
X-8789942Y7165180D01*
X-8789942Y7165180D02*
X-8885180Y7165180D01*
X-8885180Y7165180D02*
X-9028037Y7212800D01*
X-9028037Y7212800D02*
X-9123275Y7308038D01*
X-9123275Y7308038D02*
X-9170894Y7403276D01*
X-9170894Y7403276D02*
X-9218513Y7593752D01*
X-9218513Y7593752D02*
X-9218513Y7736609D01*
X-9218513Y7736609D02*
X-9170894Y7927085D01*
X-9170894Y7927085D02*
X-9123275Y8022323D01*
X-9123275Y8022323D02*
X-9028037Y8117561D01*
X-9028037Y8117561D02*
X-8885180Y8165180D01*
X-8885180Y8165180D02*
X-8789942Y8165180D01*
X-8789942Y8165180D02*
X-8647085Y8117561D01*
X-8647085Y8117561D02*
X-8599466Y8069942D01*
X-7742323Y8165180D02*
X-7932799Y8165180D01*
X-7932799Y8165180D02*
X-8028037Y8117561D01*
X-8028037Y8117561D02*
X-8075656Y8069942D01*
X-8075656Y8069942D02*
X-8170894Y7927085D01*
X-8170894Y7927085D02*
X-8218513Y7736609D01*
X-8218513Y7736609D02*
X-8218513Y7355657D01*
X-8218513Y7355657D02*
X-8170894Y7260419D01*
X-8170894Y7260419D02*
X-8123275Y7212800D01*
X-8123275Y7212800D02*
X-8028037Y7165180D01*
X-8028037Y7165180D02*
X-7837561Y7165180D01*
X-7837561Y7165180D02*
X-7742323Y7212800D01*
X-7742323Y7212800D02*
X-7694704Y7260419D01*
X-7694704Y7260419D02*
X-7647085Y7355657D01*
X-7647085Y7355657D02*
X-7647085Y7593752D01*
X-7647085Y7593752D02*
X-7694704Y7688990D01*
X-7694704Y7688990D02*
X-7742323Y7736609D01*
X-7742323Y7736609D02*
X-7837561Y7784228D01*
X-7837561Y7784228D02*
X-8028037Y7784228D01*
X-8028037Y7784228D02*
X-8123275Y7736609D01*
X-8123275Y7736609D02*
X-8170894Y7688990D01*
X-8170894Y7688990D02*
X-8218513Y7593752D01*
X-4535466Y9755980D02*
X-4868799Y10232171D01*
X-5106894Y9755980D02*
X-5106894Y10755980D01*
X-5106894Y10755980D02*
X-4725942Y10755980D01*
X-4725942Y10755980D02*
X-4630704Y10708361D01*
X-4630704Y10708361D02*
X-4583085Y10660742D01*
X-4583085Y10660742D02*
X-4535466Y10565504D01*
X-4535466Y10565504D02*
X-4535466Y10422647D01*
X-4535466Y10422647D02*
X-4583085Y10327409D01*
X-4583085Y10327409D02*
X-4630704Y10279790D01*
X-4630704Y10279790D02*
X-4725942Y10232171D01*
X-4725942Y10232171D02*
X-5106894Y10232171D01*
X-4202132Y10755980D02*
X-3583085Y10755980D01*
X-3583085Y10755980D02*
X-3916418Y10375028D01*
X-3916418Y10375028D02*
X-3773561Y10375028D01*
X-3773561Y10375028D02*
X-3678323Y10327409D01*
X-3678323Y10327409D02*
X-3630704Y10279790D01*
X-3630704Y10279790D02*
X-3583085Y10184552D01*
X-3583085Y10184552D02*
X-3583085Y9946457D01*
X-3583085Y9946457D02*
X-3630704Y9851219D01*
X-3630704Y9851219D02*
X-3678323Y9803600D01*
X-3678323Y9803600D02*
X-3773561Y9755980D01*
X-3773561Y9755980D02*
X-4059275Y9755980D01*
X-4059275Y9755980D02*
X-4154513Y9803600D01*
X-4154513Y9803600D02*
X-4202132Y9851219D01*
X-5373666Y-8233580D02*
X-5421285Y-8281200D01*
X-5421285Y-8281200D02*
X-5564142Y-8328819D01*
X-5564142Y-8328819D02*
X-5659380Y-8328819D01*
X-5659380Y-8328819D02*
X-5802237Y-8281200D01*
X-5802237Y-8281200D02*
X-5897475Y-8185961D01*
X-5897475Y-8185961D02*
X-5945094Y-8090723D01*
X-5945094Y-8090723D02*
X-5992713Y-7900247D01*
X-5992713Y-7900247D02*
X-5992713Y-7757390D01*
X-5992713Y-7757390D02*
X-5945094Y-7566914D01*
X-5945094Y-7566914D02*
X-5897475Y-7471676D01*
X-5897475Y-7471676D02*
X-5802237Y-7376438D01*
X-5802237Y-7376438D02*
X-5659380Y-7328819D01*
X-5659380Y-7328819D02*
X-5564142Y-7328819D01*
X-5564142Y-7328819D02*
X-5421285Y-7376438D01*
X-5421285Y-7376438D02*
X-5373666Y-7424057D01*
X-4516523Y-7662152D02*
X-4516523Y-8328819D01*
X-4754618Y-7281200D02*
X-4992713Y-7995485D01*
X-4992713Y-7995485D02*
X-4373666Y-7995485D01*
X-6685180Y-761904D02*
X-5875657Y-761904D01*
X-5875657Y-761904D02*
X-5780419Y-714285D01*
X-5780419Y-714285D02*
X-5732800Y-666666D01*
X-5732800Y-666666D02*
X-5685180Y-571428D01*
X-5685180Y-571428D02*
X-5685180Y-380952D01*
X-5685180Y-380952D02*
X-5732800Y-285714D01*
X-5732800Y-285714D02*
X-5780419Y-238095D01*
X-5780419Y-238095D02*
X-5875657Y-190476D01*
X-5875657Y-190476D02*
X-6685180Y-190476D01*
X-6589942Y238095D02*
X-6637561Y285714D01*
X-6637561Y285714D02*
X-6685180Y380952D01*
X-6685180Y380952D02*
X-6685180Y619047D01*
X-6685180Y619047D02*
X-6637561Y714285D01*
X-6637561Y714285D02*
X-6589942Y761904D01*
X-6589942Y761904D02*
X-6494704Y809523D01*
X-6494704Y809523D02*
X-6399466Y809523D01*
X-6399466Y809523D02*
X-6256609Y761904D01*
X-6256609Y761904D02*
X-5685180Y190476D01*
X-5685180Y190476D02*
X-5685180Y809523D01*
X9598819Y7199333D02*
X9122628Y6866000D01*
X9598819Y6627905D02*
X8598819Y6627905D01*
X8598819Y6627905D02*
X8598819Y7008857D01*
X8598819Y7008857D02*
X8646438Y7104095D01*
X8646438Y7104095D02*
X8694057Y7151714D01*
X8694057Y7151714D02*
X8789295Y7199333D01*
X8789295Y7199333D02*
X8932152Y7199333D01*
X8932152Y7199333D02*
X9027390Y7151714D01*
X9027390Y7151714D02*
X9075009Y7104095D01*
X9075009Y7104095D02*
X9122628Y7008857D01*
X9122628Y7008857D02*
X9122628Y6627905D01*
X8932152Y8056476D02*
X9598819Y8056476D01*
X8551200Y7818381D02*
X9265485Y7580286D01*
X9265485Y7580286D02*
X9265485Y8199333D01*
D14*
%TO.C,SW1*%
X1360000Y-20620000D02*
X-1360000Y-20620000D01*
X-1360000Y-12400000D01*
X1360000Y-12400000D01*
X1360000Y-20620000D01*
%TO.C,R1*%
X5694000Y3336936D02*
X5694000Y4791064D01*
X7514000Y3336936D02*
X7514000Y4791064D01*
%TO.C,C6*%
X-5849253Y8355000D02*
X-5326747Y8355000D01*
X-5849253Y6885000D02*
X-5326747Y6885000D01*
%TO.C,R3*%
X-2166000Y10930000D02*
X-2166000Y11410000D01*
X-2166000Y8630000D02*
X-2166000Y9150000D01*
X-2166000Y6370000D02*
X-2166000Y6850000D01*
X2674000Y11410000D02*
X-2166000Y11410000D01*
X2674000Y10130000D02*
X2674000Y11410000D01*
X2674000Y6750000D02*
X2674000Y7650000D01*
X2674000Y6750000D02*
X2674000Y7650000D01*
X2674000Y6750000D02*
X2674000Y6750000D01*
X2674000Y6370000D02*
X-2166000Y6370000D01*
X2674000Y6370000D02*
X2674000Y7650000D01*
%TO.C,C4*%
X-2547252Y-7139000D02*
X-2024748Y-7139000D01*
X-2547252Y-8609000D02*
X-2024748Y-8609000D01*
%TO.C,U2*%
X-5140000Y2450000D02*
X-5140000Y1000000D01*
X-5140000Y-1000000D02*
X-5140000Y-2450000D01*
X-5140000Y-2450000D02*
X5140000Y-2450000D01*
X5140000Y2450000D02*
X-5140000Y2450000D01*
X5140000Y-2450000D02*
X5140000Y2450000D01*
X-5140000Y1000000D02*
G75*
G02*
X-5140000Y-1000000I0J-1000000D01*
G01*
%TO.C,R4*%
X8234000Y3336936D02*
X8234000Y4791064D01*
X10054000Y3336936D02*
X10054000Y4791064D01*
%TO.C,TP4*%
X11025000Y14224000D02*
G75*
G02*
X8025000Y14224000I-1500000J0D01*
G01*
X8025000Y14224000D02*
G75*
G02*
X11025000Y14224000I1500000J0D01*
G01*
%TO.C,TP1*%
X-8025000Y14224000D02*
G75*
G02*
X-11025000Y14224000I-1500000J0D01*
G01*
X-11025000Y14224000D02*
G75*
G02*
X-8025000Y14224000I1500000J0D01*
G01*
%TO.C,TP2*%
X74000Y-7186000D02*
X2974000Y-7186000D01*
X74000Y-10086000D02*
X74000Y-7186000D01*
X2974000Y-7186000D02*
X2974000Y-10086000D01*
X2974000Y-10086000D02*
X74000Y-10086000D01*
%TD*%
M02*
