%TF.GenerationSoftware,KiCad,Pcbnew,9.0.0*%
%TF.CreationDate,2025-07-13T02:11:52+05:30*%
%TF.ProjectId,REF03,52454630-332e-46b6-9963-61645f706362,rev?*%
%TF.SameCoordinates,Original*%
%TF.FileFunction,Copper,L2,Bot*%
%TF.FilePolarity,Positive*%
%FSLAX46Y46*%
G04 Gerber Fmt 4.6, Leading zero omitted, Abs format (unit mm)*
G04 Created by KiCad (PCBNEW 9.0.0) date 2025-07-13 02:11:52*
%MOMM*%
%LPD*%
G01*
G04 APERTURE LIST*
G04 Aperture macros list*
%AMRoundRect*
0 Rectangle with rounded corners*
0 $1 Rounding radius*
0 $2 $3 $4 $5 $6 $7 $8 $9 X,Y pos of 4 corners*
0 Add a 4 corners polygon primitive as box body*
4,1,4,$2,$3,$4,$5,$6,$7,$8,$9,$2,$3,0*
0 Add four circle primitives for the rounded corners*
1,1,$1+$1,$2,$3*
1,1,$1+$1,$4,$5*
1,1,$1+$1,$6,$7*
1,1,$1+$1,$8,$9*
0 Add four rect primitives between the rounded corners*
20,1,$1+$1,$2,$3,$4,$5,0*
20,1,$1+$1,$4,$5,$6,$7,0*
20,1,$1+$1,$6,$7,$8,$9,0*
20,1,$1+$1,$8,$9,$2,$3,0*%
G04 Aperture macros list end*
%TA.AperFunction,ComponentPad*%
%ADD10R,1.500000X1.500000*%
%TD*%
%TA.AperFunction,ComponentPad*%
%ADD11C,1.600000*%
%TD*%
%TA.AperFunction,ComponentPad*%
%ADD12C,3.800000*%
%TD*%
%TA.AperFunction,ComponentPad*%
%ADD13C,8.000000*%
%TD*%
%TA.AperFunction,SMDPad,CuDef*%
%ADD14RoundRect,0.150000X-0.150000X0.587500X-0.150000X-0.587500X0.150000X-0.587500X0.150000X0.587500X0*%
%TD*%
%TA.AperFunction,SMDPad,CuDef*%
%ADD15R,5.000000X5.000000*%
%TD*%
%TA.AperFunction,SMDPad,CuDef*%
%ADD16R,4.000000X4.000000*%
%TD*%
%TA.AperFunction,SMDPad,CuDef*%
%ADD17RoundRect,0.250000X0.475000X-0.250000X0.475000X0.250000X-0.475000X0.250000X-0.475000X-0.250000X0*%
%TD*%
%TA.AperFunction,SMDPad,CuDef*%
%ADD18RoundRect,0.250000X-0.250000X-0.475000X0.250000X-0.475000X0.250000X0.475000X-0.250000X0.475000X0*%
%TD*%
%TA.AperFunction,SMDPad,CuDef*%
%ADD19RoundRect,0.150000X-0.512500X-0.150000X0.512500X-0.150000X0.512500X0.150000X-0.512500X0.150000X0*%
%TD*%
%TA.AperFunction,SMDPad,CuDef*%
%ADD20R,1.300000X1.300000*%
%TD*%
%TA.AperFunction,SMDPad,CuDef*%
%ADD21R,2.000000X1.300000*%
%TD*%
%TA.AperFunction,SMDPad,CuDef*%
%ADD22RoundRect,0.250000X-0.325000X-0.650000X0.325000X-0.650000X0.325000X0.650000X-0.325000X0.650000X0*%
%TD*%
%TA.AperFunction,SMDPad,CuDef*%
%ADD23RoundRect,0.250000X0.250000X0.475000X-0.250000X0.475000X-0.250000X-0.475000X0.250000X-0.475000X0*%
%TD*%
%TA.AperFunction,ViaPad*%
%ADD24C,0.600000*%
%TD*%
%TA.AperFunction,Conductor*%
%ADD25C,0.635000*%
%TD*%
%TA.AperFunction,Conductor*%
%ADD26C,0.254000*%
%TD*%
G04 APERTURE END LIST*
D10*
%TO.P,SW1,1,A*%
%TO.N,+3V0*%
X0Y-16510000D03*
D11*
%TO.P,SW1,2,B*%
%TO.N,Net-(BT1-+)*%
X0Y-13970000D03*
%TO.P,SW1,3*%
%TO.N,N/C*%
X0Y-19050000D03*
%TD*%
D12*
%TO.P,H2,1*%
%TO.N,N/C*%
X19000000Y0D03*
%TD*%
D13*
%TO.P,TP4,1,1*%
%TO.N,GND*%
X9525000Y14224000D03*
%TD*%
%TO.P,TP1,1,1*%
%TO.N,Net-(U2-VOUT)*%
X-9525000Y14224000D03*
%TD*%
D12*
%TO.P,H1,1*%
%TO.N,N/C*%
X-19000000Y0D03*
%TD*%
D14*
%TO.P,D3,1,A*%
%TO.N,+3V0*%
X3368000Y-13032500D03*
%TO.P,D3,2,K*%
%TO.N,/5p2 V*%
X5268000Y-13032500D03*
%TO.P,D3,3,COM*%
%TO.N,Net-(D3-COM)*%
X4318000Y-14907501D03*
%TD*%
D15*
%TO.P,BT1,1,+*%
%TO.N,Net-(BT1-+)*%
X12950000Y889000D03*
X-12950000Y889000D03*
D16*
%TO.P,BT1,2,-*%
%TO.N,GND*%
X0Y889000D03*
%TD*%
D17*
%TO.P,C1,1*%
%TO.N,Net-(U1-1A)*%
X-8128000Y-12938799D03*
%TO.P,C1,2*%
%TO.N,GND*%
X-8128000Y-11038801D03*
%TD*%
D18*
%TO.P,C5,1*%
%TO.N,GND*%
X-3743999Y-16510000D03*
%TO.P,C5,2*%
%TO.N,+3V0*%
X-1844001Y-16510000D03*
%TD*%
D19*
%TO.P,U1,1,1A*%
%TO.N,Net-(U1-1A)*%
X-5787101Y-12963025D03*
%TO.P,U1,2,GND*%
%TO.N,GND*%
X-5787101Y-12013026D03*
%TO.P,U1,3,2A*%
%TO.N,/1Y*%
X-5787101Y-11063027D03*
%TO.P,U1,4,2Y*%
%TO.N,Net-(U1-2Y)*%
X-3512101Y-11063027D03*
%TO.P,U1,5,V_{CC}*%
%TO.N,+3V0*%
X-3512101Y-12013026D03*
%TO.P,U1,6,1Y*%
%TO.N,/1Y*%
X-3512101Y-12963025D03*
%TD*%
D20*
%TO.P,R2,1*%
%TO.N,/1Y*%
X-10788000Y-16062000D03*
D21*
%TO.P,R2,2*%
%TO.N,Net-(U1-1A)*%
X-11938000Y-10861999D03*
D20*
%TO.P,R2,3*%
%TO.N,N/C*%
X-13088000Y-16062000D03*
%TD*%
D22*
%TO.P,C3,1*%
%TO.N,/5p2 V*%
X6144999Y-10668000D03*
%TO.P,C3,2*%
%TO.N,GND*%
X9095001Y-10668000D03*
%TD*%
D23*
%TO.P,C2,1*%
%TO.N,Net-(D3-COM)*%
X1330999Y-11176000D03*
%TO.P,C2,2*%
%TO.N,Net-(U1-2Y)*%
X-568999Y-11176000D03*
%TD*%
D24*
%TO.N,GND*%
X-1143000Y-127000D03*
X-5080000Y-16510000D03*
X1143000Y2286000D03*
X10922000Y-16256000D03*
X1143000Y-127000D03*
X9906000Y-16256000D03*
X-1143000Y2286000D03*
X0Y889000D03*
X-8128000Y-9652000D03*
%TO.N,Net-(BT1-+)*%
X-13912532Y-1363973D03*
X13883484Y-1633351D03*
%TO.N,/5p2 V*%
X-1270000Y-5842000D03*
X-1270000Y-6792000D03*
%TD*%
D25*
%TO.N,GND*%
X-6818077Y-12013026D02*
X-6831680Y-12013026D01*
X-7805905Y-11038801D02*
X-7805905Y-11293675D01*
X-6831680Y-12013026D02*
X-7805905Y-11038801D01*
X-5787101Y-12013026D02*
X-6818077Y-12013026D01*
%TO.N,Net-(U1-1A)*%
X-9845999Y-12954000D02*
X-11938000Y-10861999D01*
X-5787101Y-12963025D02*
X-7830131Y-12963025D01*
X-5811327Y-12938799D02*
X-5787101Y-12963025D01*
X-7805905Y-12938799D02*
X-5811327Y-12938799D01*
X-7839156Y-12954000D02*
X-9845999Y-12954000D01*
X-7830131Y-12963025D02*
X-7839156Y-12954000D01*
D26*
%TO.N,Net-(U1-2Y)*%
X-3512101Y-11063027D02*
X-3461988Y-11012914D01*
D25*
X-3512101Y-11063027D02*
X-3487179Y-11038105D01*
X-706894Y-11038105D02*
X-568999Y-11176000D01*
X-3487179Y-11038105D02*
X-706894Y-11038105D01*
%TO.N,/5p2 V*%
X-1270000Y-5842000D02*
X-1270000Y-7620000D01*
X5080000Y-9144000D02*
X6096000Y-10160000D01*
X6096000Y-10160000D02*
X6096000Y-12204500D01*
X6096000Y-12204500D02*
X5268000Y-13032500D01*
X254000Y-9144000D02*
X5080000Y-9144000D01*
X-1270000Y-7620000D02*
X254000Y-9144000D01*
%TO.N,+3V0*%
X-2032000Y-16322001D02*
X-2032000Y-12446000D01*
X-2464974Y-12013026D02*
X-3512101Y-12013026D01*
X-2032000Y-12446000D02*
X-2286000Y-12192000D01*
X-1844001Y-16510000D02*
X-2032000Y-16322001D01*
X-2286000Y-12192000D02*
X-2464974Y-12013026D01*
X0Y-16510000D02*
X1270000Y-16510000D01*
X0Y-16510000D02*
X-1844001Y-16510000D01*
X1270000Y-16510000D02*
X2540000Y-15240000D01*
X2540000Y-15240000D02*
X2540000Y-13860500D01*
X2540000Y-13860500D02*
X3368000Y-13032500D01*
%TO.N,/1Y*%
X-9458000Y-14732000D02*
X-10788000Y-16062000D01*
X-4064000Y-13208000D02*
X-5588000Y-14732000D01*
D26*
X-4649601Y-11448666D02*
X-4649601Y-12526296D01*
D25*
X-5588000Y-14732000D02*
X-9458000Y-14732000D01*
X-4064000Y-12963025D02*
X-4064000Y-13208000D01*
D26*
X-5787101Y-11063027D02*
X-5035240Y-11063027D01*
D25*
X-3512101Y-12963025D02*
X-4064000Y-12963025D01*
D26*
X-5035240Y-11063027D02*
X-4649601Y-11448666D01*
X-4649601Y-12526296D02*
X-4212872Y-12963025D01*
X-4212872Y-12963025D02*
X-3512101Y-12963025D01*
D25*
%TO.N,Net-(D3-COM)*%
X1340955Y-11166044D02*
X1330999Y-11176000D01*
X4318000Y-14907501D02*
X4318000Y-11684000D01*
X3800044Y-11166044D02*
X1340955Y-11166044D01*
X4318000Y-11684000D02*
X3800044Y-11166044D01*
%TD*%
%TA.AperFunction,Conductor*%
%TO.N,GND*%
G36*
X457732Y21994674D02*
G01*
X1360139Y21957350D01*
X1366286Y21956968D01*
X2266347Y21882387D01*
X2272473Y21881752D01*
X3168707Y21770037D01*
X3174802Y21769149D01*
X4065649Y21620492D01*
X4071701Y21619353D01*
X4955639Y21434011D01*
X4961639Y21432623D01*
X5837166Y21210909D01*
X5843104Y21209274D01*
X6708724Y20951569D01*
X6714589Y20949690D01*
X7568815Y20656433D01*
X7574598Y20654313D01*
X8415977Y20326006D01*
X8421667Y20323649D01*
X9248764Y19960851D01*
X9254351Y19958261D01*
X10065723Y19561604D01*
X10071199Y19558786D01*
X10865527Y19128918D01*
X10870882Y19125875D01*
X11646743Y18663563D01*
X11651967Y18660302D01*
X12408060Y18166321D01*
X12413145Y18162846D01*
X13148186Y17638037D01*
X13153124Y17634356D01*
X13865840Y17079627D01*
X13870621Y17075744D01*
X14559826Y16492016D01*
X14564442Y16487940D01*
X15228913Y15876252D01*
X15233357Y15871988D01*
X15871988Y15233357D01*
X15876252Y15228913D01*
X16487940Y14564442D01*
X16492016Y14559826D01*
X17075744Y13870621D01*
X17079627Y13865840D01*
X17634356Y13153124D01*
X17638037Y13148186D01*
X18162846Y12413145D01*
X18166321Y12408060D01*
X18660302Y11651967D01*
X18663563Y11646743D01*
X19125875Y10870882D01*
X19128918Y10865527D01*
X19558786Y10071199D01*
X19561604Y10065723D01*
X19958261Y9254351D01*
X19960851Y9248764D01*
X20323649Y8421667D01*
X20326006Y8415977D01*
X20654313Y7574598D01*
X20656433Y7568815D01*
X20949690Y6714589D01*
X20951569Y6708724D01*
X21209274Y5843104D01*
X21210909Y5837166D01*
X21432623Y4961639D01*
X21434011Y4955639D01*
X21619353Y4071701D01*
X21620492Y4065649D01*
X21769149Y3174802D01*
X21770037Y3168707D01*
X21881752Y2272473D01*
X21882387Y2266347D01*
X21956968Y1366286D01*
X21957350Y1360139D01*
X21994674Y457731D01*
X21994801Y451574D01*
X21994801Y-451574D01*
X21994674Y-457731D01*
X21957350Y-1360139D01*
X21956968Y-1366286D01*
X21882387Y-2266347D01*
X21881752Y-2272473D01*
X21770037Y-3168707D01*
X21769149Y-3174802D01*
X21620492Y-4065649D01*
X21619353Y-4071701D01*
X21434011Y-4955639D01*
X21432623Y-4961639D01*
X21210909Y-5837166D01*
X21209274Y-5843104D01*
X20951569Y-6708724D01*
X20949690Y-6714589D01*
X20656433Y-7568815D01*
X20654313Y-7574598D01*
X20326006Y-8415977D01*
X20323649Y-8421667D01*
X19960851Y-9248764D01*
X19958261Y-9254351D01*
X19561604Y-10065723D01*
X19558786Y-10071199D01*
X19128918Y-10865527D01*
X19125875Y-10870882D01*
X18663563Y-11646743D01*
X18660302Y-11651967D01*
X18166321Y-12408060D01*
X18162846Y-12413145D01*
X17638037Y-13148186D01*
X17634356Y-13153124D01*
X17079627Y-13865840D01*
X17075744Y-13870621D01*
X16492016Y-14559826D01*
X16487940Y-14564442D01*
X15876252Y-15228913D01*
X15871988Y-15233357D01*
X15233357Y-15871988D01*
X15228913Y-15876252D01*
X14564442Y-16487940D01*
X14559826Y-16492016D01*
X13870621Y-17075744D01*
X13865840Y-17079627D01*
X13153124Y-17634356D01*
X13148186Y-17638037D01*
X12413145Y-18162846D01*
X12408060Y-18166321D01*
X11651967Y-18660302D01*
X11646743Y-18663563D01*
X10870882Y-19125875D01*
X10865527Y-19128918D01*
X10071199Y-19558786D01*
X10065723Y-19561604D01*
X9254351Y-19958261D01*
X9248764Y-19960851D01*
X8421667Y-20323649D01*
X8415977Y-20326006D01*
X7574598Y-20654313D01*
X7568815Y-20656433D01*
X6714589Y-20949690D01*
X6708724Y-20951569D01*
X5843104Y-21209274D01*
X5837166Y-21210909D01*
X4961639Y-21432623D01*
X4955639Y-21434011D01*
X4071701Y-21619353D01*
X4065649Y-21620492D01*
X3174802Y-21769149D01*
X3168707Y-21770037D01*
X2272473Y-21881752D01*
X2266347Y-21882387D01*
X1366286Y-21956968D01*
X1360139Y-21957350D01*
X457732Y-21994674D01*
X451575Y-21994801D01*
X-451575Y-21994801D01*
X-457732Y-21994674D01*
X-1360139Y-21957350D01*
X-1366286Y-21956968D01*
X-2266347Y-21882387D01*
X-2272473Y-21881752D01*
X-3168707Y-21770037D01*
X-3174802Y-21769149D01*
X-4065649Y-21620492D01*
X-4071701Y-21619353D01*
X-4955639Y-21434011D01*
X-4961639Y-21432623D01*
X-5837166Y-21210909D01*
X-5843104Y-21209274D01*
X-6708724Y-20951569D01*
X-6714589Y-20949690D01*
X-7568815Y-20656433D01*
X-7574598Y-20654313D01*
X-8415977Y-20326006D01*
X-8421667Y-20323649D01*
X-9248764Y-19960851D01*
X-9254351Y-19958261D01*
X-10065723Y-19561604D01*
X-10071199Y-19558786D01*
X-10865527Y-19128918D01*
X-10870882Y-19125875D01*
X-11646743Y-18663563D01*
X-11651967Y-18660302D01*
X-12408060Y-18166321D01*
X-12413145Y-18162846D01*
X-13148186Y-17638037D01*
X-13153124Y-17634356D01*
X-13352622Y-17479081D01*
X-13399152Y-17417569D01*
X-13408692Y-17341034D01*
X-13378686Y-17269981D01*
X-13317174Y-17223451D01*
X-13261104Y-17212499D01*
X-12390136Y-17212499D01*
X-12390128Y-17212499D01*
X-12330517Y-17206091D01*
X-12291633Y-17191588D01*
X-12195670Y-17155797D01*
X-12195666Y-17155795D01*
X-12080455Y-17069547D01*
X-12080452Y-17069544D01*
X-12057280Y-17038590D01*
X-11996653Y-16990913D01*
X-11920310Y-16979937D01*
X-11848707Y-17008603D01*
X-11818720Y-17038590D01*
X-11795546Y-17069546D01*
X-11737938Y-17112671D01*
X-11680333Y-17155795D01*
X-11680329Y-17155797D01*
X-11625693Y-17176174D01*
X-11545483Y-17206091D01*
X-11529370Y-17207823D01*
X-11485885Y-17212499D01*
X-11485882Y-17212499D01*
X-11485873Y-17212500D01*
X-10090128Y-17212499D01*
X-10030517Y-17206091D01*
X-9991633Y-17191588D01*
X-9895670Y-17155797D01*
X-9895666Y-17155795D01*
X-9780455Y-17069547D01*
X-9780452Y-17069544D01*
X-9754572Y-17034973D01*
X-4743998Y-17034973D01*
X-4733504Y-17137696D01*
X-4678356Y-17304121D01*
X-4586318Y-17453340D01*
X-4462339Y-17577319D01*
X-4313120Y-17669357D01*
X-4146696Y-17724505D01*
X-4146687Y-17724507D01*
X-4043982Y-17734999D01*
X-3993999Y-17734999D01*
X-3993999Y-16760000D01*
X-4743998Y-16760000D01*
X-4743998Y-17034973D01*
X-9754572Y-17034973D01*
X-9694204Y-16954333D01*
X-9694202Y-16954329D01*
X-9643908Y-16819482D01*
X-9637500Y-16759885D01*
X-9637500Y-16130045D01*
X-9632423Y-16111097D01*
X-9632423Y-16091481D01*
X-9622615Y-16074493D01*
X-9617538Y-16055545D01*
X-9593859Y-16024686D01*
X-9554193Y-15985020D01*
X-4743999Y-15985020D01*
X-4743999Y-16260000D01*
X-3993999Y-16260000D01*
X-3993999Y-15285000D01*
X-4043973Y-15285000D01*
X-4146695Y-15295494D01*
X-4313120Y-15350642D01*
X-4462339Y-15442680D01*
X-4586318Y-15566659D01*
X-4678356Y-15715878D01*
X-4733504Y-15882302D01*
X-4733506Y-15882311D01*
X-4743998Y-15985010D01*
X-4743999Y-15985020D01*
X-9554193Y-15985020D01*
X-9162814Y-15593641D01*
X-9096019Y-15555077D01*
X-9057455Y-15550000D01*
X-5507434Y-15550000D01*
X-5349398Y-15518565D01*
X-5274965Y-15487733D01*
X-5274964Y-15487733D01*
X-5225334Y-15467176D01*
X-5200532Y-15456903D01*
X-5066555Y-15367382D01*
X-3523212Y-13824039D01*
X-3518290Y-13821197D01*
X-3515091Y-13816501D01*
X-3495986Y-13808320D01*
X-3456417Y-13785475D01*
X-3445615Y-13783007D01*
X-3435164Y-13781025D01*
X-3431535Y-13781025D01*
X-3357274Y-13766253D01*
X-3356643Y-13766134D01*
X-3355918Y-13766187D01*
X-3328881Y-13763525D01*
X-2999000Y-13763525D01*
X-2924500Y-13783487D01*
X-2869962Y-13838025D01*
X-2850000Y-13912525D01*
X-2850000Y-15284059D01*
X-2869962Y-15358559D01*
X-2924500Y-15413097D01*
X-2999000Y-15433059D01*
X-3073500Y-15413097D01*
X-3077220Y-15410876D01*
X-3174873Y-15350644D01*
X-3174876Y-15350642D01*
X-3341301Y-15295494D01*
X-3341310Y-15295492D01*
X-3444009Y-15285000D01*
X-3493999Y-15285000D01*
X-3493999Y-17734999D01*
X-3444025Y-17734999D01*
X-3341302Y-17724505D01*
X-3174877Y-17669357D01*
X-3025658Y-17577319D01*
X-2899713Y-17451374D01*
X-2832918Y-17412810D01*
X-2755790Y-17412810D01*
X-2688995Y-17451374D01*
X-2686713Y-17453655D01*
X-2686713Y-17453656D01*
X-2562657Y-17577712D01*
X-2413335Y-17669814D01*
X-2246798Y-17724999D01*
X-2144010Y-17735500D01*
X-1543993Y-17735499D01*
X-1441204Y-17724999D01*
X-1274667Y-17669814D01*
X-1231082Y-17642931D01*
X-1157194Y-17620811D01*
X-1087488Y-17635855D01*
X-1074837Y-17642031D01*
X-992331Y-17703796D01*
X-857483Y-17754091D01*
X-841889Y-17755767D01*
X-818986Y-17766950D01*
X-802004Y-17781724D01*
X-782186Y-17792392D01*
X-773404Y-17806606D01*
X-760798Y-17817574D01*
X-753478Y-17838859D01*
X-741649Y-17858008D01*
X-741151Y-17874710D01*
X-735718Y-17890511D01*
X-740021Y-17912602D01*
X-739351Y-17935102D01*
X-747271Y-17949815D01*
X-750466Y-17966216D01*
X-765240Y-17983197D01*
X-775908Y-18003016D01*
X-796779Y-18021386D01*
X-847209Y-18058026D01*
X-847220Y-18058035D01*
X-991964Y-18202779D01*
X-991971Y-18202787D01*
X-1112285Y-18368387D01*
X-1112287Y-18368390D01*
X-1205220Y-18550781D01*
X-1268477Y-18745466D01*
X-1300500Y-18947648D01*
X-1300500Y-19152352D01*
X-1268477Y-19354534D01*
X-1205220Y-19549219D01*
X-1112287Y-19731610D01*
X-991966Y-19897219D01*
X-847219Y-20041966D01*
X-681610Y-20162287D01*
X-499219Y-20255220D01*
X-304534Y-20318477D01*
X-102352Y-20350500D01*
X-102347Y-20350500D01*
X102347Y-20350500D01*
X102352Y-20350500D01*
X304534Y-20318477D01*
X499219Y-20255220D01*
X681610Y-20162287D01*
X847219Y-20041966D01*
X991966Y-19897219D01*
X1112287Y-19731610D01*
X1205220Y-19549219D01*
X1268477Y-19354534D01*
X1300500Y-19152352D01*
X1300500Y-18947648D01*
X1268477Y-18745466D01*
X1205220Y-18550781D01*
X1112287Y-18368390D01*
X1112285Y-18368387D01*
X991971Y-18202787D01*
X991964Y-18202779D01*
X847220Y-18058035D01*
X847212Y-18058028D01*
X796779Y-18021387D01*
X748240Y-17961447D01*
X736174Y-17885269D01*
X763814Y-17813264D01*
X823754Y-17764725D01*
X850099Y-17755835D01*
X857471Y-17754092D01*
X857483Y-17754091D01*
X969613Y-17712269D01*
X992329Y-17703797D01*
X992333Y-17703795D01*
X1073636Y-17642931D01*
X1107546Y-17617546D01*
X1193796Y-17502331D01*
X1222831Y-17424481D01*
X1267568Y-17361656D01*
X1324467Y-17332470D01*
X1341429Y-17328000D01*
X1350566Y-17328000D01*
X1508602Y-17296565D01*
X1583035Y-17265733D01*
X1657468Y-17234903D01*
X1791445Y-17145382D01*
X3175382Y-15761445D01*
X3264902Y-15627469D01*
X3264902Y-15627467D01*
X3268969Y-15621382D01*
X3270568Y-15622451D01*
X3316329Y-15573580D01*
X3390133Y-15551180D01*
X3465249Y-15568684D01*
X3521549Y-15621400D01*
X3538113Y-15658530D01*
X3566257Y-15755401D01*
X3569833Y-15761448D01*
X3649919Y-15896866D01*
X3766135Y-16013082D01*
X3907602Y-16096745D01*
X4065428Y-16142598D01*
X4065427Y-16142598D01*
X4065431Y-16142599D01*
X4102306Y-16145501D01*
X4102313Y-16145501D01*
X4533687Y-16145501D01*
X4533694Y-16145501D01*
X4570569Y-16142599D01*
X4728398Y-16096745D01*
X4869865Y-16013082D01*
X4986081Y-15896866D01*
X5069744Y-15755399D01*
X5115598Y-15597570D01*
X5118500Y-15560695D01*
X5118500Y-15090720D01*
X5121363Y-15061651D01*
X5122795Y-15054455D01*
X5136000Y-14988067D01*
X5136000Y-14419500D01*
X5155962Y-14345000D01*
X5210500Y-14290462D01*
X5285000Y-14270500D01*
X5483687Y-14270500D01*
X5483694Y-14270500D01*
X5520569Y-14267598D01*
X5678398Y-14221744D01*
X5819865Y-14138081D01*
X5936081Y-14021865D01*
X6019744Y-13880398D01*
X6065598Y-13722569D01*
X6068500Y-13685694D01*
X6068500Y-13450543D01*
X6088462Y-13376043D01*
X6112137Y-13345187D01*
X6617442Y-12839883D01*
X6617445Y-12839882D01*
X6731382Y-12725945D01*
X6771575Y-12665792D01*
X6820903Y-12591968D01*
X6858168Y-12502000D01*
X6882565Y-12443102D01*
X6914000Y-12285066D01*
X6914000Y-11997085D01*
X6933962Y-11922585D01*
X6957641Y-11891726D01*
X6988742Y-11860625D01*
X7062711Y-11786656D01*
X7154813Y-11637334D01*
X7209998Y-11470797D01*
X7220499Y-11368009D01*
X7220499Y-11367973D01*
X8020002Y-11367973D01*
X8030495Y-11470696D01*
X8085643Y-11637121D01*
X8177681Y-11786340D01*
X8301660Y-11910319D01*
X8450879Y-12002357D01*
X8617303Y-12057505D01*
X8617312Y-12057507D01*
X8720016Y-12067999D01*
X8845000Y-12067999D01*
X9345001Y-12067999D01*
X9469975Y-12067999D01*
X9572697Y-12057505D01*
X9739122Y-12002357D01*
X9888341Y-11910319D01*
X10012320Y-11786340D01*
X10104358Y-11637121D01*
X10159506Y-11470697D01*
X10159508Y-11470688D01*
X10170000Y-11367989D01*
X10170001Y-11367979D01*
X10170001Y-10918000D01*
X9345001Y-10918000D01*
X9345001Y-12067999D01*
X8845000Y-12067999D01*
X8845001Y-12067998D01*
X8845001Y-10918000D01*
X8020002Y-10918000D01*
X8020002Y-11367973D01*
X7220499Y-11367973D01*
X7220498Y-10652629D01*
X7220498Y-9968010D01*
X8020001Y-9968010D01*
X8020001Y-10418000D01*
X8845001Y-10418000D01*
X9345001Y-10418000D01*
X10170000Y-10418000D01*
X10170000Y-9968026D01*
X10159506Y-9865303D01*
X10104358Y-9698878D01*
X10012320Y-9549659D01*
X9888341Y-9425680D01*
X9739122Y-9333642D01*
X9572698Y-9278494D01*
X9572689Y-9278492D01*
X9469990Y-9268000D01*
X9345001Y-9268000D01*
X9345001Y-10418000D01*
X8845001Y-10418000D01*
X8845001Y-9268000D01*
X8720027Y-9268000D01*
X8617304Y-9278494D01*
X8450879Y-9333642D01*
X8301660Y-9425680D01*
X8177681Y-9549659D01*
X8085643Y-9698878D01*
X8030495Y-9865302D01*
X8030493Y-9865311D01*
X8020001Y-9968010D01*
X7220498Y-9968010D01*
X7220498Y-9967996D01*
X7220498Y-9967992D01*
X7209998Y-9865203D01*
X7154813Y-9698666D01*
X7062711Y-9549344D01*
X6938655Y-9425288D01*
X6789333Y-9333186D01*
X6706064Y-9305593D01*
X6622797Y-9278001D01*
X6602238Y-9275900D01*
X6520008Y-9267500D01*
X6520004Y-9267500D01*
X6422045Y-9267500D01*
X6347545Y-9247538D01*
X6316686Y-9223859D01*
X5601448Y-8508621D01*
X5601445Y-8508618D01*
X5601441Y-8508615D01*
X5467472Y-8419099D01*
X5467470Y-8419098D01*
X5459935Y-8415977D01*
X5393035Y-8388266D01*
X5393035Y-8388265D01*
X5318605Y-8357436D01*
X5318599Y-8357434D01*
X5160566Y-8326000D01*
X654545Y-8326000D01*
X580045Y-8306038D01*
X549186Y-8282359D01*
X-408359Y-7324814D01*
X-446923Y-7258019D01*
X-452000Y-7219455D01*
X-452000Y-5761433D01*
X-483434Y-5603400D01*
X-545095Y-5454536D01*
X-545100Y-5454526D01*
X-634617Y-5320556D01*
X-634621Y-5320551D01*
X-748551Y-5206621D01*
X-748556Y-5206617D01*
X-882526Y-5117100D01*
X-882536Y-5117095D01*
X-1031400Y-5055434D01*
X-1189434Y-5024000D01*
X-1350566Y-5024000D01*
X-1508599Y-5055434D01*
X-1508600Y-5055434D01*
X-1508602Y-5055435D01*
X-1539431Y-5068205D01*
X-1657463Y-5117095D01*
X-1657473Y-5117100D01*
X-1759670Y-5185387D01*
X-1791445Y-5206618D01*
X-1905382Y-5320555D01*
X-1941043Y-5373927D01*
X-1994899Y-5454526D01*
X-1994902Y-5454532D01*
X-2056565Y-5603398D01*
X-2088000Y-5761434D01*
X-2088000Y-7700566D01*
X-2056565Y-7858602D01*
X-2031986Y-7917940D01*
X-1994903Y-8007468D01*
X-1905382Y-8141445D01*
X-350683Y-9696143D01*
X-312121Y-9762936D01*
X-312121Y-9840064D01*
X-350685Y-9906859D01*
X-417480Y-9945423D01*
X-456044Y-9950500D01*
X-869002Y-9950500D01*
X-971796Y-9961001D01*
X-1138333Y-10016186D01*
X-1229529Y-10072436D01*
X-1287655Y-10108288D01*
X-1355831Y-10176464D01*
X-1422626Y-10215028D01*
X-1461190Y-10220105D01*
X-3567745Y-10220105D01*
X-3725778Y-10251539D01*
X-3732785Y-10253665D01*
X-3733047Y-10252800D01*
X-3781943Y-10262527D01*
X-4090295Y-10262527D01*
X-4118975Y-10264784D01*
X-4127172Y-10265429D01*
X-4203734Y-10287673D01*
X-4284999Y-10311283D01*
X-4285000Y-10311283D01*
X-4285001Y-10311284D01*
X-4333856Y-10340177D01*
X-4426466Y-10394946D01*
X-4426467Y-10394947D01*
X-4531923Y-10500403D01*
X-4547743Y-10509536D01*
X-4560421Y-10522690D01*
X-4580566Y-10528487D01*
X-4598718Y-10538967D01*
X-4616985Y-10538967D01*
X-4634541Y-10544019D01*
X-4651764Y-10538967D01*
X-4675846Y-10538967D01*
X-4709396Y-10525430D01*
X-4714880Y-10522396D01*
X-4738007Y-10506944D01*
X-4757177Y-10499003D01*
X-4764522Y-10494941D01*
X-4774034Y-10485771D01*
X-4797766Y-10469915D01*
X-4872734Y-10394947D01*
X-4872737Y-10394945D01*
X-5014200Y-10311284D01*
X-5172029Y-10265429D01*
X-5172028Y-10265429D01*
X-5186782Y-10264268D01*
X-5208907Y-10262527D01*
X-6365295Y-10262527D01*
X-6393975Y-10264784D01*
X-6402172Y-10265429D01*
X-6478734Y-10287673D01*
X-6559999Y-10311283D01*
X-6560000Y-10311283D01*
X-6560001Y-10311284D01*
X-6608856Y-10340177D01*
X-6701466Y-10394946D01*
X-6701467Y-10394947D01*
X-6761977Y-10455457D01*
X-6828772Y-10494021D01*
X-6905900Y-10494021D01*
X-6972695Y-10455457D01*
X-6994153Y-10428319D01*
X-7060680Y-10320460D01*
X-7184659Y-10196481D01*
X-7333878Y-10104443D01*
X-7500302Y-10049295D01*
X-7500311Y-10049293D01*
X-7603010Y-10038801D01*
X-7878000Y-10038801D01*
X-7878000Y-10889801D01*
X-7897962Y-10964301D01*
X-7952500Y-11018839D01*
X-8027000Y-11038801D01*
X-8128000Y-11038801D01*
X-8128000Y-11139801D01*
X-8147962Y-11214301D01*
X-8202500Y-11268839D01*
X-8277000Y-11288801D01*
X-9352999Y-11288801D01*
X-9352999Y-11338774D01*
X-9342505Y-11441497D01*
X-9287357Y-11607922D01*
X-9195319Y-11757141D01*
X-9070820Y-11881641D01*
X-9061012Y-11898628D01*
X-9047141Y-11912500D01*
X-9042063Y-11931448D01*
X-9032256Y-11948436D01*
X-9032256Y-11968052D01*
X-9027179Y-11987000D01*
X-9032256Y-12005947D01*
X-9032256Y-12025564D01*
X-9042063Y-12042551D01*
X-9047141Y-12061500D01*
X-9061012Y-12075371D01*
X-9070820Y-12092359D01*
X-9087807Y-12102166D01*
X-9101679Y-12116038D01*
X-9120627Y-12121115D01*
X-9137615Y-12130923D01*
X-9176179Y-12136000D01*
X-9445454Y-12136000D01*
X-9519954Y-12116038D01*
X-9550813Y-12092359D01*
X-10393859Y-11249311D01*
X-10432423Y-11182516D01*
X-10437500Y-11143952D01*
X-10437500Y-10738821D01*
X-9353000Y-10738821D01*
X-9353000Y-10788801D01*
X-8378000Y-10788801D01*
X-8378000Y-10038801D01*
X-8652973Y-10038801D01*
X-8755696Y-10049295D01*
X-8922121Y-10104443D01*
X-9071340Y-10196481D01*
X-9195319Y-10320460D01*
X-9287357Y-10469679D01*
X-9342505Y-10636103D01*
X-9342507Y-10636112D01*
X-9352999Y-10738811D01*
X-9353000Y-10738821D01*
X-10437500Y-10738821D01*
X-10437500Y-10164135D01*
X-10437502Y-10164110D01*
X-10443908Y-10104520D01*
X-10443909Y-10104514D01*
X-10494202Y-9969669D01*
X-10494204Y-9969665D01*
X-10580452Y-9854454D01*
X-10580455Y-9854451D01*
X-10695666Y-9768203D01*
X-10695670Y-9768201D01*
X-10830517Y-9717907D01*
X-10890123Y-9711499D01*
X-12985863Y-9711499D01*
X-12985888Y-9711501D01*
X-13045478Y-9717907D01*
X-13045484Y-9717908D01*
X-13180329Y-9768201D01*
X-13180333Y-9768203D01*
X-13295544Y-9854451D01*
X-13295547Y-9854454D01*
X-13381795Y-9969665D01*
X-13381797Y-9969669D01*
X-13432091Y-10104516D01*
X-13438498Y-10164110D01*
X-13438500Y-10164126D01*
X-13438499Y-11559871D01*
X-13432091Y-11619482D01*
X-13396298Y-11715446D01*
X-13381797Y-11754328D01*
X-13381795Y-11754332D01*
X-13357597Y-11786656D01*
X-13295546Y-11869545D01*
X-13265916Y-11891726D01*
X-13180333Y-11955794D01*
X-13180329Y-11955796D01*
X-13141350Y-11970334D01*
X-13045483Y-12006090D01*
X-13029370Y-12007822D01*
X-12985885Y-12012498D01*
X-12985882Y-12012498D01*
X-12985873Y-12012499D01*
X-12006043Y-12012498D01*
X-11931544Y-12032460D01*
X-11900689Y-12056135D01*
X-10481382Y-13475444D01*
X-10481381Y-13475445D01*
X-10367444Y-13589382D01*
X-10260699Y-13660705D01*
X-10233472Y-13678899D01*
X-10233469Y-13678900D01*
X-10233467Y-13678902D01*
X-10084601Y-13740565D01*
X-10084597Y-13740565D01*
X-10084597Y-13740566D01*
X-10053224Y-13746806D01*
X-9945743Y-13768185D01*
X-9876571Y-13802296D01*
X-9833721Y-13866425D01*
X-9828676Y-13943388D01*
X-9862788Y-14012563D01*
X-9892032Y-14038209D01*
X-9979441Y-14096615D01*
X-9979445Y-14096618D01*
X-9979448Y-14096621D01*
X-10750686Y-14867859D01*
X-10817481Y-14906423D01*
X-10856045Y-14911500D01*
X-11485863Y-14911500D01*
X-11485888Y-14911502D01*
X-11545478Y-14917908D01*
X-11545484Y-14917909D01*
X-11680329Y-14968202D01*
X-11680333Y-14968204D01*
X-11795544Y-15054452D01*
X-11795545Y-15054453D01*
X-11795546Y-15054454D01*
X-11800934Y-15061651D01*
X-11818721Y-15085411D01*
X-11879349Y-15133087D01*
X-11955692Y-15144062D01*
X-12027295Y-15115395D01*
X-12057279Y-15085411D01*
X-12080454Y-15054453D01*
X-12080455Y-15054452D01*
X-12195666Y-14968204D01*
X-12195670Y-14968202D01*
X-12330517Y-14917908D01*
X-12390123Y-14911500D01*
X-13785863Y-14911500D01*
X-13785888Y-14911502D01*
X-13845478Y-14917908D01*
X-13845484Y-14917909D01*
X-13980329Y-14968202D01*
X-13980333Y-14968204D01*
X-14095544Y-15054452D01*
X-14095547Y-15054455D01*
X-14181795Y-15169666D01*
X-14181797Y-15169670D01*
X-14232091Y-15304517D01*
X-14238014Y-15359609D01*
X-14238500Y-15364127D01*
X-14238499Y-16068327D01*
X-14238499Y-16442711D01*
X-14242000Y-16455777D01*
X-14240883Y-16469258D01*
X-14251824Y-16492444D01*
X-14258461Y-16517211D01*
X-14268026Y-16526776D01*
X-14273799Y-16539009D01*
X-14294868Y-16553618D01*
X-14312999Y-16571749D01*
X-14326064Y-16575249D01*
X-14337181Y-16582958D01*
X-14362734Y-16585075D01*
X-14387499Y-16591711D01*
X-14400565Y-16588209D01*
X-14414046Y-16589327D01*
X-14437232Y-16578385D01*
X-14461999Y-16571749D01*
X-14483797Y-16556411D01*
X-14559814Y-16492028D01*
X-14564431Y-16487951D01*
X-15228913Y-15876252D01*
X-15233357Y-15871988D01*
X-15871988Y-15233357D01*
X-15876252Y-15228913D01*
X-16487940Y-14564442D01*
X-16492016Y-14559826D01*
X-17075744Y-13870621D01*
X-17079627Y-13865840D01*
X-17634356Y-13153124D01*
X-17638037Y-13148186D01*
X-18162846Y-12413145D01*
X-18166321Y-12408060D01*
X-18660302Y-11651967D01*
X-18663563Y-11646743D01*
X-19125875Y-10870882D01*
X-19128918Y-10865527D01*
X-19558786Y-10071199D01*
X-19561604Y-10065723D01*
X-19958261Y-9254351D01*
X-19960851Y-9248764D01*
X-20323649Y-8421667D01*
X-20326006Y-8415977D01*
X-20654313Y-7574598D01*
X-20656433Y-7568815D01*
X-20949690Y-6714589D01*
X-20951569Y-6708724D01*
X-21209274Y-5843104D01*
X-21210909Y-5837166D01*
X-21432623Y-4961639D01*
X-21434011Y-4955639D01*
X-21619353Y-4071701D01*
X-21620492Y-4065649D01*
X-21769149Y-3174802D01*
X-21770037Y-3168707D01*
X-21881752Y-2272473D01*
X-21882387Y-2266347D01*
X-21956968Y-1366286D01*
X-21957350Y-1360139D01*
X-21994674Y-457731D01*
X-21994801Y-451574D01*
X-21994801Y134809D01*
X-21400500Y134809D01*
X-21400500Y-134809D01*
X-21370312Y-402732D01*
X-21310316Y-665591D01*
X-21221267Y-920079D01*
X-21104284Y-1162997D01*
X-20960838Y-1391289D01*
X-20792734Y-1602085D01*
X-20602085Y-1792734D01*
X-20391289Y-1960838D01*
X-20162997Y-2104284D01*
X-19920079Y-2221267D01*
X-19665591Y-2310316D01*
X-19402732Y-2370312D01*
X-19134809Y-2400500D01*
X-18865191Y-2400500D01*
X-18597268Y-2370312D01*
X-18448137Y-2336273D01*
X-18334417Y-2310318D01*
X-18334415Y-2310317D01*
X-18334409Y-2310316D01*
X-18079921Y-2221267D01*
X-17837003Y-2104284D01*
X-17758242Y-2054795D01*
X-17608713Y-1960840D01*
X-17473904Y-1853333D01*
X-17397915Y-1792734D01*
X-17207266Y-1602085D01*
X-17066476Y-1425540D01*
X-17039159Y-1391286D01*
X-16895716Y-1162997D01*
X-16778735Y-920084D01*
X-16778732Y-920075D01*
X-16689683Y-665587D01*
X-16689681Y-665582D01*
X-16629687Y-402730D01*
X-16599500Y-134808D01*
X-16599500Y134808D01*
X-16629687Y402730D01*
X-16689681Y665582D01*
X-16689683Y665587D01*
X-16701975Y700718D01*
X-16778733Y920079D01*
X-16895716Y1162997D01*
X-17039159Y1391286D01*
X-17111206Y1481630D01*
X-17207266Y1602085D01*
X-17397915Y1792734D01*
X-17548483Y1912808D01*
X-17608713Y1960840D01*
X-17760905Y2056468D01*
X-17837003Y2104284D01*
X-18079921Y2221267D01*
X-18334409Y2310316D01*
X-18334415Y2310317D01*
X-18334417Y2310318D01*
X-18448137Y2336273D01*
X-18597268Y2370312D01*
X-18865191Y2400500D01*
X-19134809Y2400500D01*
X-19402732Y2370312D01*
X-19665591Y2310316D01*
X-19920079Y2221267D01*
X-20162997Y2104284D01*
X-20391289Y1960838D01*
X-20602085Y1792734D01*
X-20792734Y1602085D01*
X-20960838Y1391289D01*
X-21104284Y1162997D01*
X-21221267Y920079D01*
X-21310316Y665591D01*
X-21370312Y402732D01*
X-21400500Y134809D01*
X-21994801Y134809D01*
X-21994801Y451574D01*
X-21994674Y457731D01*
X-21957350Y1360139D01*
X-21956968Y1366286D01*
X-21882387Y2266347D01*
X-21881752Y2272473D01*
X-21770037Y3168707D01*
X-21769149Y3174802D01*
X-21725417Y3436873D01*
X-15950500Y3436873D01*
X-15950499Y-1658872D01*
X-15944091Y-1718483D01*
X-15893796Y-1853331D01*
X-15807546Y-1968546D01*
X-15749938Y-2011671D01*
X-15692333Y-2054795D01*
X-15692329Y-2054797D01*
X-15637693Y-2075174D01*
X-15557483Y-2105091D01*
X-15541370Y-2106823D01*
X-15497885Y-2111499D01*
X-15497882Y-2111499D01*
X-15497873Y-2111500D01*
X-14229287Y-2111499D01*
X-14172266Y-2122841D01*
X-14146029Y-2133710D01*
X-13991374Y-2164473D01*
X-13833690Y-2164473D01*
X-13679035Y-2133710D01*
X-13659127Y-2125463D01*
X-13652795Y-2122841D01*
X-13595775Y-2111499D01*
X-10402136Y-2111499D01*
X-10402128Y-2111499D01*
X-10342517Y-2105091D01*
X-10303633Y-2090588D01*
X-10207670Y-2054797D01*
X-10207666Y-2054795D01*
X-10092455Y-1968547D01*
X-10092452Y-1968544D01*
X-10006204Y-1853333D01*
X-10006202Y-1853329D01*
X-9955908Y-1718482D01*
X-9949500Y-1658885D01*
X-9949500Y-1658867D01*
X-9949500Y-1158822D01*
X-2500000Y-1158822D01*
X-2499998Y-1158842D01*
X-2493598Y-1218377D01*
X-2443354Y-1353084D01*
X-2443349Y-1353094D01*
X-2357190Y-1468187D01*
X-2357187Y-1468190D01*
X-2242094Y-1554349D01*
X-2242084Y-1554354D01*
X-2107376Y-1604598D01*
X-2107378Y-1604598D01*
X-2047842Y-1610998D01*
X-2047823Y-1611000D01*
X-250000Y-1611000D01*
X250000Y-1611000D01*
X2047823Y-1611000D01*
X2047842Y-1610998D01*
X2107377Y-1604598D01*
X2242084Y-1554354D01*
X2242094Y-1554349D01*
X2357187Y-1468190D01*
X2357190Y-1468187D01*
X2443349Y-1353094D01*
X2443354Y-1353084D01*
X2493598Y-1218377D01*
X2499998Y-1158842D01*
X2500000Y-1158822D01*
X2500000Y639000D01*
X250000Y639000D01*
X250000Y-1611000D01*
X-250000Y-1611000D01*
X-250000Y639000D01*
X-2500000Y639000D01*
X-2500000Y-1158822D01*
X-9949500Y-1158822D01*
X-9949500Y-665582D01*
X-9949501Y2936822D01*
X-2500000Y2936822D01*
X-2500000Y1139000D01*
X-250000Y1139000D01*
X250000Y1139000D01*
X2500000Y1139000D01*
X2500000Y2936822D01*
X2499998Y2936842D01*
X2493598Y2996377D01*
X2443354Y3131084D01*
X2443349Y3131094D01*
X2357190Y3246187D01*
X2357187Y3246190D01*
X2256475Y3321584D01*
X2256474Y3321585D01*
X2242095Y3332348D01*
X2242084Y3332354D01*
X2107376Y3382598D01*
X2107378Y3382598D01*
X2047842Y3388998D01*
X2047823Y3389000D01*
X250000Y3389000D01*
X250000Y1139000D01*
X-250000Y1139000D01*
X-250000Y3389000D01*
X-2047823Y3389000D01*
X-2047842Y3388998D01*
X-2107377Y3382598D01*
X-2242084Y3332354D01*
X-2242094Y3332349D01*
X-2357187Y3246190D01*
X-2357190Y3246187D01*
X-2443349Y3131094D01*
X-2443354Y3131084D01*
X-2493598Y2996377D01*
X-2499998Y2936842D01*
X-2500000Y2936822D01*
X-9949501Y2936822D01*
X-9949501Y3436872D01*
X-9949502Y3436885D01*
X9949500Y3436885D01*
X9949500Y-1658863D01*
X9949502Y-1658888D01*
X9955908Y-1718478D01*
X9955909Y-1718484D01*
X10006202Y-1853329D01*
X10006204Y-1853333D01*
X10092452Y-1968544D01*
X10092455Y-1968547D01*
X10207666Y-2054795D01*
X10207670Y-2054797D01*
X10342517Y-2105091D01*
X10402114Y-2111499D01*
X10402118Y-2111499D01*
X10402127Y-2111500D01*
X13167836Y-2111499D01*
X13242336Y-2131461D01*
X13273195Y-2155140D01*
X13373195Y-2255140D01*
X13504305Y-2342745D01*
X13649987Y-2403088D01*
X13804642Y-2433851D01*
X13962326Y-2433851D01*
X14116981Y-2403088D01*
X14262663Y-2342745D01*
X14393773Y-2255140D01*
X14493772Y-2155141D01*
X14560566Y-2116576D01*
X14599131Y-2111499D01*
X15497864Y-2111499D01*
X15497872Y-2111499D01*
X15557483Y-2105091D01*
X15653447Y-2069298D01*
X15692329Y-2054797D01*
X15692333Y-2054795D01*
X15749938Y-2011671D01*
X15807546Y-1968546D01*
X15893796Y-1853331D01*
X15944091Y-1718483D01*
X15945823Y-1702370D01*
X15950499Y-1658885D01*
X15950500Y-1658867D01*
X15950500Y134808D01*
X16599500Y134808D01*
X16599500Y-134808D01*
X16629687Y-402730D01*
X16689681Y-665582D01*
X16689683Y-665587D01*
X16778732Y-920075D01*
X16778735Y-920084D01*
X16895716Y-1162997D01*
X17039159Y-1391286D01*
X17066476Y-1425540D01*
X17207266Y-1602085D01*
X17397915Y-1792734D01*
X17473904Y-1853333D01*
X17608713Y-1960840D01*
X17758242Y-2054795D01*
X17837003Y-2104284D01*
X18079921Y-2221267D01*
X18334409Y-2310316D01*
X18334415Y-2310317D01*
X18334417Y-2310318D01*
X18448137Y-2336273D01*
X18597268Y-2370312D01*
X18865191Y-2400500D01*
X19134809Y-2400500D01*
X19402732Y-2370312D01*
X19665591Y-2310316D01*
X19920079Y-2221267D01*
X20162997Y-2104284D01*
X20391289Y-1960838D01*
X20602085Y-1792734D01*
X20792734Y-1602085D01*
X20960838Y-1391289D01*
X21104284Y-1162997D01*
X21221267Y-920079D01*
X21310316Y-665591D01*
X21370312Y-402732D01*
X21400500Y-134809D01*
X21400500Y134809D01*
X21370312Y402732D01*
X21310316Y665591D01*
X21221267Y920079D01*
X21104284Y1162997D01*
X20960838Y1391289D01*
X20792734Y1602085D01*
X20602085Y1792734D01*
X20391289Y1960838D01*
X20162997Y2104284D01*
X19920079Y2221267D01*
X19665591Y2310316D01*
X19402732Y2370312D01*
X19134809Y2400500D01*
X18865191Y2400500D01*
X18597268Y2370312D01*
X18448137Y2336273D01*
X18334417Y2310318D01*
X18334415Y2310317D01*
X18334409Y2310316D01*
X18079921Y2221267D01*
X17837003Y2104284D01*
X17760905Y2056468D01*
X17608713Y1960840D01*
X17548483Y1912808D01*
X17397915Y1792734D01*
X17207266Y1602085D01*
X17111206Y1481630D01*
X17039159Y1391286D01*
X16895716Y1162997D01*
X16778733Y920079D01*
X16701976Y700718D01*
X16689683Y665587D01*
X16689681Y665582D01*
X16629687Y402730D01*
X16599500Y134808D01*
X15950500Y134808D01*
X15950500Y138990D01*
X15950499Y3436863D01*
X15950499Y3436872D01*
X15944091Y3496483D01*
X15893796Y3631331D01*
X15807546Y3746546D01*
X15749938Y3789671D01*
X15692333Y3832795D01*
X15692329Y3832797D01*
X15637693Y3853174D01*
X15557483Y3883091D01*
X15497873Y3889500D01*
X10402128Y3889499D01*
X10342517Y3883091D01*
X10303633Y3868588D01*
X10207670Y3832797D01*
X10207666Y3832795D01*
X10092455Y3746547D01*
X10092452Y3746544D01*
X10006204Y3631333D01*
X10006202Y3631329D01*
X9955908Y3496482D01*
X9949500Y3436885D01*
X-9949502Y3436885D01*
X-9949502Y3436888D01*
X-9955908Y3496478D01*
X-9955909Y3496484D01*
X-10006202Y3631329D01*
X-10006204Y3631333D01*
X-10092452Y3746544D01*
X-10092455Y3746547D01*
X-10207666Y3832795D01*
X-10207670Y3832797D01*
X-10342517Y3883091D01*
X-10402127Y3889500D01*
X-15497872Y3889499D01*
X-15557483Y3883091D01*
X-15653447Y3847298D01*
X-15692329Y3832797D01*
X-15692333Y3832795D01*
X-15749938Y3789671D01*
X-15807546Y3746546D01*
X-15893796Y3631331D01*
X-15944091Y3496483D01*
X-15945823Y3480370D01*
X-15950498Y3436888D01*
X-15950500Y3436873D01*
X-21725417Y3436873D01*
X-21720658Y3465389D01*
X-21620492Y4065649D01*
X-21619353Y4071701D01*
X-21434011Y4955639D01*
X-21432623Y4961639D01*
X-21210909Y5837166D01*
X-21209274Y5843104D01*
X-20951569Y6708724D01*
X-20949690Y6714589D01*
X-20656433Y7568815D01*
X-20654313Y7574598D01*
X-20326006Y8415977D01*
X-20323649Y8421667D01*
X-19960851Y9248764D01*
X-19958261Y9254351D01*
X-19561604Y10065723D01*
X-19558786Y10071199D01*
X-19128918Y10865527D01*
X-19125875Y10870882D01*
X-18663563Y11646743D01*
X-18660302Y11651967D01*
X-18166321Y12408060D01*
X-18162846Y12413145D01*
X-17638037Y13148186D01*
X-17634356Y13153124D01*
X-17079627Y13865840D01*
X-17075744Y13870621D01*
X-16610023Y14420496D01*
X-14025500Y14420496D01*
X-14025500Y14027504D01*
X-13991249Y13636007D01*
X-13991246Y13635994D01*
X-13991246Y13635988D01*
X-13923027Y13249094D01*
X-13923007Y13248985D01*
X-13821293Y12869384D01*
X-13686881Y12500092D01*
X-13520796Y12143920D01*
X-13324300Y11803579D01*
X-13098889Y11481659D01*
X-13098884Y11481653D01*
X-12846279Y11180610D01*
X-12568389Y10902720D01*
X-12267817Y10650510D01*
X-12267341Y10650111D01*
X-11945421Y10424700D01*
X-11605080Y10228204D01*
X-11605073Y10228200D01*
X-11605070Y10228199D01*
X-11382472Y10124400D01*
X-11248908Y10062119D01*
X-11248902Y10062117D01*
X-11248898Y10062115D01*
X-10879625Y9927710D01*
X-10879620Y9927708D01*
X-10879616Y9927707D01*
X-10500015Y9825993D01*
X-10500011Y9825992D01*
X-10499994Y9825988D01*
X-10113011Y9757753D01*
X-10112979Y9757749D01*
X-9721496Y9723500D01*
X-9328503Y9723500D01*
X-8937020Y9757749D01*
X-8936988Y9757753D01*
X-8550005Y9825988D01*
X-8549985Y9825993D01*
X-8170384Y9927707D01*
X-8170374Y9927710D01*
X-7801101Y10062115D01*
X-7801085Y10062122D01*
X-7444929Y10228199D01*
X-7104582Y10424698D01*
X-6782664Y10650107D01*
X-6782653Y10650115D01*
X-6481610Y10902720D01*
X-6351419Y11032912D01*
X-6203720Y11180610D01*
X-5951115Y11481653D01*
X-5951107Y11481664D01*
X-5725698Y11803582D01*
X-5529199Y12143929D01*
X-5363122Y12500085D01*
X-5363115Y12500101D01*
X-5228710Y12869374D01*
X-5228707Y12869384D01*
X-5126993Y13248985D01*
X-5126988Y13249005D01*
X-5058753Y13635988D01*
X-5058749Y13636020D01*
X-5024500Y14027503D01*
X-5024500Y14420474D01*
X5025000Y14420474D01*
X5025000Y14027525D01*
X5059246Y13636086D01*
X5059250Y13636059D01*
X5127479Y13249110D01*
X5127483Y13249094D01*
X5229183Y12869537D01*
X5363581Y12500283D01*
X5363583Y12500278D01*
X5529644Y12144161D01*
X5726121Y11803851D01*
X5951510Y11481962D01*
X6169553Y11222107D01*
X7945079Y12997633D01*
X8018094Y12902479D01*
X8203479Y12717094D01*
X8298633Y12644079D01*
X6523107Y10868553D01*
X6782962Y10650510D01*
X7104851Y10425121D01*
X7445161Y10228644D01*
X7801278Y10062583D01*
X7801283Y10062581D01*
X8170537Y9928183D01*
X8550094Y9826483D01*
X8550110Y9826479D01*
X8937059Y9758250D01*
X8937086Y9758246D01*
X9328525Y9724000D01*
X9721474Y9724000D01*
X10112913Y9758246D01*
X10112940Y9758250D01*
X10499889Y9826479D01*
X10499905Y9826483D01*
X10879462Y9928183D01*
X11248716Y10062581D01*
X11248721Y10062583D01*
X11604838Y10228644D01*
X11945148Y10425121D01*
X12267043Y10650514D01*
X12526891Y10868552D01*
X12526891Y10868553D01*
X10751365Y12644079D01*
X10846521Y12717094D01*
X11031906Y12902479D01*
X11104919Y12997632D01*
X12880445Y11222107D01*
X12880446Y11222107D01*
X13098485Y11481956D01*
X13323878Y11803851D01*
X13520355Y12144161D01*
X13686416Y12500278D01*
X13686418Y12500283D01*
X13820816Y12869537D01*
X13922516Y13249094D01*
X13922520Y13249110D01*
X13990749Y13636059D01*
X13990753Y13636086D01*
X14024999Y14027525D01*
X14025000Y14027535D01*
X14025000Y14420465D01*
X14024999Y14420474D01*
X13990753Y14811913D01*
X13990749Y14811940D01*
X13922520Y15198889D01*
X13922516Y15198905D01*
X13820816Y15578462D01*
X13686418Y15947716D01*
X13686416Y15947721D01*
X13520355Y16303838D01*
X13323878Y16644148D01*
X13098494Y16966030D01*
X13098486Y16966041D01*
X12880445Y17225891D01*
X11104920Y15450366D01*
X11031906Y15545521D01*
X10846521Y15730906D01*
X10751366Y15803920D01*
X12526891Y17579445D01*
X12267041Y17797486D01*
X12267030Y17797494D01*
X11945148Y18022878D01*
X11604838Y18219355D01*
X11248721Y18385416D01*
X11248716Y18385418D01*
X10879462Y18519816D01*
X10499905Y18621516D01*
X10499889Y18621520D01*
X10112940Y18689749D01*
X10112913Y18689753D01*
X9721474Y18723999D01*
X9721465Y18724000D01*
X9328535Y18724000D01*
X9328525Y18723999D01*
X8937086Y18689753D01*
X8937059Y18689749D01*
X8550110Y18621520D01*
X8550094Y18621516D01*
X8170537Y18519816D01*
X7801283Y18385418D01*
X7801278Y18385416D01*
X7445161Y18219355D01*
X7104851Y18022878D01*
X6782956Y17797485D01*
X6523107Y17579446D01*
X6523107Y17579445D01*
X8298633Y15803920D01*
X8203479Y15730906D01*
X8018094Y15545521D01*
X7945078Y15450365D01*
X6169553Y17225891D01*
X6169552Y17225891D01*
X5951514Y16966043D01*
X5726121Y16644148D01*
X5529644Y16303838D01*
X5363583Y15947721D01*
X5363581Y15947716D01*
X5229183Y15578462D01*
X5127483Y15198905D01*
X5127479Y15198889D01*
X5059250Y14811940D01*
X5059246Y14811913D01*
X5025000Y14420474D01*
X-5024500Y14420474D01*
X-5024500Y14420496D01*
X-5058749Y14811979D01*
X-5058753Y14812011D01*
X-5126988Y15198994D01*
X-5126993Y15199014D01*
X-5135611Y15231179D01*
X-5228707Y15578616D01*
X-5337038Y15876252D01*
X-5363115Y15947898D01*
X-5363122Y15947914D01*
X-5529199Y16304070D01*
X-5529200Y16304073D01*
X-5529204Y16304080D01*
X-5725700Y16644421D01*
X-5951111Y16966341D01*
X-6203722Y17267391D01*
X-6481609Y17545278D01*
X-6522328Y17579445D01*
X-6782653Y17797884D01*
X-6782659Y17797889D01*
X-7104579Y18023300D01*
X-7444920Y18219796D01*
X-7801092Y18385881D01*
X-8170384Y18520293D01*
X-8549985Y18622007D01*
X-8549998Y18622009D01*
X-8550005Y18622011D01*
X-8936988Y18690246D01*
X-8936994Y18690246D01*
X-8937007Y18690249D01*
X-9328504Y18724500D01*
X-9721496Y18724500D01*
X-10112993Y18690249D01*
X-10113007Y18690246D01*
X-10113011Y18690246D01*
X-10499994Y18622011D01*
X-10499998Y18622009D01*
X-10500015Y18622007D01*
X-10879616Y18520293D01*
X-11248908Y18385881D01*
X-11605080Y18219796D01*
X-11945421Y18023300D01*
X-12267341Y17797889D01*
X-12568391Y17545278D01*
X-12846278Y17267391D01*
X-13098889Y16966341D01*
X-13324300Y16644421D01*
X-13520796Y16304080D01*
X-13686881Y15947908D01*
X-13821293Y15578616D01*
X-13923007Y15199015D01*
X-13923009Y15198998D01*
X-13923011Y15198994D01*
X-13938619Y15110475D01*
X-13991249Y14811993D01*
X-14025500Y14420496D01*
X-16610023Y14420496D01*
X-16525708Y14520046D01*
X-16492016Y14559826D01*
X-16487940Y14564442D01*
X-15876252Y15228913D01*
X-15871988Y15233357D01*
X-15233357Y15871988D01*
X-15228913Y15876252D01*
X-14564442Y16487940D01*
X-14559826Y16492016D01*
X-13870621Y17075744D01*
X-13865840Y17079627D01*
X-13153124Y17634356D01*
X-13148186Y17638037D01*
X-12413145Y18162846D01*
X-12408060Y18166321D01*
X-11651967Y18660302D01*
X-11646743Y18663563D01*
X-10870882Y19125875D01*
X-10865527Y19128918D01*
X-10071199Y19558786D01*
X-10065723Y19561604D01*
X-9254351Y19958261D01*
X-9248764Y19960851D01*
X-8421667Y20323649D01*
X-8415977Y20326006D01*
X-7574598Y20654313D01*
X-7568815Y20656433D01*
X-6714589Y20949690D01*
X-6708724Y20951569D01*
X-5843104Y21209274D01*
X-5837166Y21210909D01*
X-4961639Y21432623D01*
X-4955639Y21434011D01*
X-4071701Y21619353D01*
X-4065649Y21620492D01*
X-3174802Y21769149D01*
X-3168707Y21770037D01*
X-2272473Y21881752D01*
X-2266347Y21882387D01*
X-1366286Y21956968D01*
X-1360139Y21957350D01*
X-457732Y21994674D01*
X-451575Y21994801D01*
X451575Y21994801D01*
X457732Y21994674D01*
G37*
%TD.AperFunction*%
%TD*%
M02*
